<?xml version="1.0" standalone="no"?>
<!DOCTYPE svg PUBLIC "-//W3C//DTD SVG 1.1//EN" "http://www.w3.org/Graphics/SVG/1.1/DTD/svg11.dtd" >
<svg xmlns="http://www.w3.org/2000/svg">
<metadata>Generated by IcoMoon</metadata>
<defs>
<font id="icomoon" horiz-adv-x="1024">
<font-face units-per-em="1024" ascent="960" descent="-64" />
<missing-glyph horiz-adv-x="1024" />
<glyph unicode="&#x20;" horiz-adv-x="512" d="" />
<glyph unicode="&#xe600;" glyph-name="stylus" d="M1020 916q-3 10-8 18t-13 14q-7 6-17 9t-21 3q-26 0-53-11.5t-55-34.5q-26-21-52.5-49t-52.5-62q-25-33-50-71t-48-80q-24-42-44.5-84t-38.5-84-32.5-82-25.5-78q-11-39-16.5-71.5t-5.5-58.5q0-12 3-22.5t9-18.5q4-7 14.5-14t29.5-7q15 0 31 6.5t33 18.5q16 12 29.5 26.5t25.5 31.5l2 3 1 4q1 7-0.5 13.5t-6.5 11.5q-7 7-15.5 8t-16.5-4l-2-2-2-3q-8-10-14-17t-12-12q-2-2-4-3l-4-2q-1 2-1 4.5v6.5q0 29 3.5 61t11.5 67q7 35 17.5 70.5t23.5 71.5 28 71 33 69q18 33 37 63t39 56q19 25 39.5 45.5t41.5 35.5q19 14 38 21.5t37 7.5q12 0 16.5-2t6.5-3l1-1v-1l-1-5 2-4q1-5 4.5-9t7.5-7q8-5 16.5-4.5t14.5 6.5l3 5q6 10 9.5 20t5.5 20q1 11 0.5 21t-2.5 18v0zM537 702q0 12-3 22.5t-9 18.5q-4 7-14.5 14t-29.5 7q-15 0-31-6.5t-33-18.5q-16-12-29.5-26.5t-25.5-31.5l-2-3-1-4q-1-7 0.5-13.5t6.5-12.5q7-6 15.5-7t16.5 4l2 2 2 3q8 10 14 17t12 12q3 2 5 3.5t3 1.5q1-2 1-4.5v-6.5q0-29-3.5-61t-11.5-67q-7-35-17.5-70.5t-23.5-71.5-28-71-33-69q-18-33-36.5-63t-39.5-56q-19-25-39.5-45.5t-41.5-35.5q-19-14-38-21.5t-38-7.5q-11 0-16 2t-6 3l-1 1v1l1 5-2 4q-1 5-4.5 9t-7.5 7q-8 5-16.5 4.5t-14.5-6.5l-3-5q-6-10-9.5-20t-5.5-20q-1-11-0.5-21t2.5-18q3-10 8-18t13-14q7-6 17-9t21-3q26 0 53 11.5t55 34.5q26 21 52.5 49t52.5 62q25 33 50 71t48 80q24 42 44.5 84t38.5 84 32.5 82 25.5 78q11 39 16.5 71.5t5.5 58.5v0z" />
<glyph unicode="&#xe601;" glyph-name="swift" d="M631 905q169-115 237.5-230t83.5-206.5-1-149l-16-57.5 19.5-24.5t38.5-63.5 28.5-87-9.5-96l-37.5 44.5t-103.5 44.5q-64 0-121.5-44.5t-186.5-44.5q-143 0-249 50t-176 110-104 110l-34 50q129-86 235.5-107t183-12 118.5 30.5l42 21.5q-58 34-141 119.5t-159.5 175-130.5 158l-54 68.5q108-92 186-151.5t128-94.5 74-49l24-14q-28 23-75.5 82t-93.5 121-79.5 109.5l-33.5 47.5q62-63 147.5-133.5t163-130.5 132-99.5l54.5-39.5q35 98 25.5 186.5t-35.5 156.5-53 108.5l-27 40.5z" />
<glyph unicode="&#xe602;" glyph-name="svg" d="M972 574q-13 13-28 23t-32 17q7 16 11 33.5t4 36.5q0 74-52.5 126t-126.5 52q-19 0-36.5-3.5t-34.5-10.5q-6 16-15.5 31t-22.5 29q-26 25-58.5 38.5t-68.5 13.5-68.5-13.5-57.5-38.5q-14-14-23.5-29t-15.5-31q-16 7-34 10.5t-37 3.5q-73 0-125.5-52t-52.5-126q0-19 3.5-36.5t10.5-33.5q-17-7-32-17t-28-23q-25-25-38.5-57.5t-13.5-68.5 13.5-68.5 38.5-57.5q13-13 28-23t32-17q-7-16-10.5-33.5t-3.5-36.5q0-74 52-126t126-52q19 0 37 3.5t34 10.5q6-16 15.5-31.5t23.5-28.5q25-25 57.5-38.5t68.5-13.5 68.5 13.5 57.5 38.5q14 13 23.5 28.5t15.5 31.5q17-7 34.5-10.5t36.5-3.5q74 0 126 52t52 126q0 19-3.5 36.5t-10.5 33.5q17 7 32 17t28 23q52 52 52 126t-52 126v0zM898 395q-22-22-53-22t-53 22h-152l108-108q31 0 52.5-22t21.5-53-21.5-52.5-52.5-21.5-53 21.5-22 52.5l-108 108v-152q22-22 22-53t-22-53-53-22-53 22-22 53 22 53v152l-108-108q0-31-22-52.5t-53-21.5q-30 0-52 21.5t-22 52.5 22 53 52 22l109 108h-153q-22-22-53-22t-53 22-22 53 22 53 53 22 53-22h153l-109 108q-31 0-52.5 22t-21.5 53 21.5 52.5 52.5 21.5 53-21.5 22-52.5l108-108v152q-22 22-22 53t22 53 53 22 53-22 22-53-22-53v-152l108 108q0 31 22 52.5t53 21.5 52.5-21.5 21.5-52.5-21.5-53-52.5-22l-108-108h152q22 22 53 22t53-22 22-53-22-53v0z" />
<glyph unicode="&#xe604;" glyph-name="gulp" d="M606 744l37 106 126 74-21 36-139-81-47-132q-19 1-40.5 1.5t-44.5 0.5q-92 0-157-7.5t-65-18.5 65-18.5 157-7.5 157.5 7.5 65.5 18.5q0 6-26 12t-68 9v0zM477 657q-92 0-157 7.5t-65 18.5l42-480q0-11 58-18.5t122-7.5q65 0 123 7.5t58 18.5l42 480q0-11-65.5-18.5t-157.5-7.5v0zM323 155l10.5-26t13.5-58q4-32 9-74.5l5-42.5q0-7 38.5-12.5t83.5-5.5q44 0 82.5 5.5t38.5 12.5l5.5 45t9.5 82q4 38 13.5 56l9.5 18-48-9t-111-9q-64 0-112 9l-48 9z" />
<glyph unicode="&#xe609;" glyph-name="ios" d="M662 796q27 33 43 75.5t10 88.5q-39-2-81-24t-70-53q-25-29-42.5-72t-11.5-87q44-3 84.5 18.5t67.5 53.5v0zM791 416q0-58 17.5-98.5t51.5-63.5q34-22 51-33.5t18-11.5q-1-2-5-13.5t-13-34.5q-16-44-50.5-94.5t-70.5-89.5q-37-39-88.5-40t-80.5 20q-15 10-37.5 15.5t-51.5 5.5-51.5-5-37.5-15q-30-20-79.5-22t-89.5 41q-40 42-72 89t-59 112q-27 64-39.5 134.5t-6.5 140.5 40.5 128.5 90.5 93.5q56 34 113.5 34.5t101.5-21.5q23-12 41.5-17.5t34.5-5.5q14 0 35 7t48 20q26 13 54 18.5t58 2.5q25-1 83.5-19t104.5-83q-2-1-16.5-13.5t-41.5-36.5-40.5-60-12.5-85v0z" />
<glyph unicode="&#xe60a;" glyph-name="net" d="M660 331q3 7 6 14.5t5 14.5q7 23 14.5 44.5t14.5 43.5q7 21 14 42.5t13 44.5q6 16 12.5 32t16.5 31q16 22 38.5 34.5t50.5 16.5q10 2 21 3t21 1h133q1-1 2-1h2q-1-1-1-1.5v-1.5l-1-1v-1q-6-11-12-21.5t-11-21.5q-7-11-13-21.5t-12-21.5q-11-18-21.5-36.5t-21.5-36.5q-11-19-22-37t-22-37q-14-23-29.5-45.5t-33.5-43.5q-13-16-26.5-30t-31.5-25q-12-7-24.5-11.5t-27.5-4.5h-202q-15 0-27.5 6t-24.5 16q-15 14-25 32t-19 37l-12 36t-10 37q-5 19-9.5 37.5t-8.5 37.5q-4 17-8.5 34t-10.5 34q0 1-0.5 2.5t-1.5 2.5l-4-4q-20-19-37.5-41t-32.5-44q-5-7-7-14.5t-4-15.5q-9-28-17.5-55t-17.5-54-25.5-46.5-41.5-32.5q-16-7-31.5-10.5t-32.5-4.5h-47q-13-1-25-1h-24q-6 0-7.5 1.5t0.5 6.5q10 39 23.5 76.5t30.5 74.5q17 38 37.5 73.5t45.5 68.5q18 22 37.5 42.5t43.5 35.5q12 9 25 14t28 8h165t52 1q27 0 48-12t35-34q10-13 17-28.5t13-30.5l10-32t9-33q8-32 14-58t12-44q2-10 4.5-19t4.5-18l1.5-3t0.5-3l2 1z" />
<glyph unicode="&#xe60b;" glyph-name="linux" d="M708 263q-1-16-5.5-19.5t-20.5-6.5q-12-2-16-6.5t-5-18.5v-65q0-11-4-20t-11-16q-43-43-93.5-63t-111.5-13q-26 4-44.5 19t-31.5 37q3 1 6 2.5l5 2.5 9 3q19 7 22.5 22.5t-12.5 30.5q-5 5-11.5 10t-12.5 11q-13 9-25.5 19t-24.5 20q-6 5-12.5 9.5t-12.5 9.5q-11 9-15.5 20t-4.5 23q0 34 6.5 64.5t19.5 59.5q6 13 12 27t11 27 10 27 11 27q6 14 12.5 27.5t14.5 26.5q9 12 13.5 24t3.5 25v33l6 3q7-7 14.5-13t13.5-12q26-23 51-24t53 18q12 9 24.5 16.5t24.5 14.5q2 0 3.5 1t4.5 2q2 1 4.5 1.5t4.5 1.5q13-32 26.5-63t26.5-63q4-8 7-15.5t6-15.5q3-9 7-17l8-16q16-29 25-61t8-66v-18t1-18v-17.5t-1-17.5v0zM392 801q9 12 20 14.5t23-6.5 20-28.5 3-34.5q-1-2-2-4.5t-3-4.5l-5-5t-4-5l-5 4q-1 3-1.5 7t-0.5 8q-1 9-3.5 14.5t-8.5 8.5q-2 2-4.5 3.5t-4.5 4.5q-2-3-4-5t-4-5q-6-4-6.5-10.5t3.5-13.5q2-7 4.5-12.5t6.5-8.5l8-8-16-13q-19 17-24 49t8 51v0zM499 782q5 16 16 26t28 14q15 3 26.5-4t20.5-24q10-16 12.5-34.5t-6.5-37.5q-6-16-12-18.5t-22 2.5q-3 1-6.5 3t-8.5 3q2 2 4 3.5t3 3.5q2 1 3.5 2.5l2.5 2.5q8 4 10.5 11t1.5 15q-1 11-7.5 19t-15.5 8-14.5-7-6.5-17q0-8 0.5-15t1.5-16q-22 6-30 21.5t-1 38.5v0zM930 108q-12 9-23.5 18.5t-21.5 18.5q-12 12-18.5 25.5t-4.5 31.5q1 9-2.5 17t-15.5 11q3 7 5.5 13t3.5 11q0 6 1 11.5t1 11.5q0 63-20 118.5t-54 106.5q-15 23-31 46.5t-32 45.5q-26 37-36.5 76.5t-11.5 83.5q0 19-2 39.5t-6 39.5q-9 38-29.5 66.5t-58.5 44.5q-28 13-56.5 15.5t-59.5-5.5q-43-12-67.5-43t-24.5-76q1-43 3-86t5-86q1-25-3.5-46.5t-21.5-40.5q-15-18-29.5-38t-26.5-41q-9-12-16-24.5t-11-24.5q-12-35-25.5-70.5t-34.5-67.5q-9-13-9.5-26t4.5-27q1-3 2-7.5t-2-7.5q-14-25-33-44t-50-24q-25-4-30-11.5t-4-33.5q0-22-0.5-42.5t-2.5-41.5q-2-22 2.5-31t26.5-14q25-6 50-12.5t50-12.5q24-7 48.5-15t48.5-18q20-8 40-5t36 20q18 18 39 25t43 7h40t40-1q19 0 39-0.5t39-1.5q11 0 18-4t11-14q5-12 14-20t22-10q28-2 51.5 3.5t42.5 24.5q25 25 53.5 44.5t61.5 33.5q9 4 17 10t17 12q13 12 12.5 21t-13.5 21v0z" />
<glyph unicode="&#xe60c;" glyph-name="zend" d="M678 341h-62q-4-1-7-1h-7q-3-1-6.5-1.5t-7.5-1.5q-55-8-79-47t-27-78q0-4 1-5t5-1h37v-1q6 1 12.5 1h12.5t12.5 0.5 12.5 1.5q46 5 77.5 42t31.5 84q0 4-1.5 5.5t-4.5 1.5v0zM813 513h-202q-17 0-32-3.5t-30-10.5q-33-19-48-48t-19-65q0-6 2-6h188q20 0 42.5 2.5t43.5 14.5q20 12 33.5 31t19.5 38q3 9 5.5 19t2.5 20q1 6 0.5 7t-6.5 1v0zM1016 687h-399q-12 0-23-1.5t-21-4.5q-40-9-66.5-45.5t-24.5-75.5q0-3 0.5-4t1.5-1h261t26-0.5 26-0.5h56q28 0 56.5 1.5t51.5 14.5 36 34 19 40q2 8 4 17.5t4 19.5q0 5-2.5 5.5t-5.5 0.5v0zM427 310h-102q-26-1-51-1h-61q18 24 35.5 48.5t35.5 48.5q34 49 69 96.5t70 95.5q17 23 34.5 46.5t34.5 47.5h-1t-2 1h-443q-4 0-5.5-1t-1.5-5v-90q0-7 1-8.5t8-1.5h229.5t3.5-1q-18-24-35-47.5t-35-47.5q-35-49-70-96.5t-70-95.5q-18-23-35.5-47t-35.5-48l5-1h423q5 0 6 2t1 5v93q0 3-1.5 5t-6.5 2v0z" />
<glyph unicode="&#xe60d;" glyph-name="less" d="M526 332v148.5t-2 150.5q-1 74-2.5 148.5t-1.5 148.5v32h-80t-40.5-0.5-40.5-1.5q-18 0-32.5-1.5t-32.5-2.5q-63-9-94.5-40t-43.5-94q-1-10-2.5-19t-1.5-17v-108q0-35-1.5-75.5t-22.5-70.5q-11-15-27.5-24t-38.5-11h4q2-1-1-1.5t-10-0.5v-92q52-8 72.5-31t22.5-73q2-3 2-6v-110q0-43 2-84t15-75q12-34 48-53.5t79-23.5q21-4 38.5-5.5t30.5-1.5v97.5t-2 1.5h-4q-57 5-75 24t-18 75q0 19 0.5 38.5t1.5 36.5q0 37-0.5 79.5t-12.5 84.5q-6 21-19 38.5t-34 32.5h-2l2 2v4q27 18 42 45t20 61q2 17 3 36t1 37v77q0 39 1.5 71.5t16.5 51.5q14 18 35.5 22t39.5 6h22t34 2v-36q0-67-0.5-133t-1.5-132q-2-66-3.5-133.5t-1.5-133.5q2-45 12.5-86t60.5-60q13-5 27.5-9.5t28.5-5.5q15-3 19-6.5t18-6.5q2 14 4.5 27.5t4.5 26.5q1 13 3 25.5t3 25.5q-56 15-60.5 33t-4.5 75v0zM887 541q-6 17-10.5 36t-4.5 37q-2 24-2 47v45q0 45-1.5 90t-18.5 80q-16 36-54 54.5t-77 23.5q-19 1-38.5 2.5t-38.5 1.5v-97h15v-2h2q52-2 72-22.5t20-72.5q2-18 2.5-37t0.5-38v-78q0-45 11.5-88t54.5-71q0-1 0.5-1.5t1.5-0.5v-4q-21-15-37-36t-21-48q-1-11-3-21.5t-3-21.5q-2-11-2.5-22.5t-1.5-22.5v-80q0-40-1.5-76.5t-16.5-52.5q-8-8-19-14t-26-10q-6-1-12.5-1.5t-11.5-0.5q-6-1-12.5-1.5t-12.5-2.5v-99q13 2 24 2.5t19 1.5q8 0 16 0.5t16 1.5q66 7 104 42.5t44 99.5q2 20 3.5 41.5t1.5 40.5q0 39 1 77.5t3 75.5q5 39 30.5 59t64.5 18v104q-26-5-47.5 5.5t-34.5 34.5v1z" />
<glyph unicode="&#xe611;" glyph-name="grunt" d="M767 790q-3-7-5-11.5t-11-7.5q-12-4-18 2l-12 12q-2 3-1.5 9t2.5 12q6 15 16 25.5t27 14.5h2.5t3.5 1h5q-2-8-3-15l-2-14t-2.5-14-1.5-14v0zM831 258l3 9q10-31 9-61t-18-58q-20-29-49-41t-63-15l4 34-28 52q44 5 82 20t60 60v0zM628 513l9 11q17 19 37 33.5t45 29.5v-39q0-31-34-42t-57 7v0zM653 93l-4-6q-3-4-6.5-7.5l-6.5-6.5q-15-16-31.5-15t-29.5 19q-2 2-4 5l-8 12t-4 5q-4 14-0.5 19t16.5 5q7 1 14.5 1h14.5q7-1 14-1h14q20 0 23.5-6t-2.5-24v0zM466 99q-4-6-9-12.5t-10-12.5q-12-15-27-16t-28 11q-2 3-4.5 5t-4.5 5l-11 11q-6 24-1.5 28.5t30.5 4.5h12t12 1q12 0 25-0.5t17-5.5q1-2 1-7t-2-12v0zM305 548v39q10-7 20.5-14t22.5-14q11-8 21-16.5t18-17.5q1-1 1.5-2t1.5-2q1 0 1.5-1.5t1.5-2.5v-0.5t1-1.5 1-1.5v-1.5q-21-16-55.5-6.5t-34.5 42.5v0zM313 91q-6 1-11 2.5t-10 1.5q-6 1-10.5 2t-10.5 1q-42 13-65.5 42.5t-24.5 73.5q0 6 1 12.5t2 12.5 2 12.5 1 13.5h4l1-1v-2q21-46 59.5-62.5t83.5-21.5l-28-52 6-35zM248 847q20 0 39.5-17.5t18.5-36.5q0-6-7.5-13.5t-13.5-9.5q-7-3-15.5 1t-10.5 14q-1 3-1 5.5v5.5q-1 2-1.5 5t-0.5 5l-2 10t-1 11q-1 4-2.5 9.5t-2.5 10.5v0zM805 421q16 9 32.5 19.5t31.5 23.5q26 22 24 51.5t-29 50.5q-2 2-4.5 4t-4.5 4q-3 2-4.5 4t-2.5 4q-5 21-7 42t12 42q5 7 8.5 16t6.5 18q7 26-4 46t-36 27q-3 1-4.5 1t-4.5 1q-4 0-8 1.5t-7 3.5q-2 1-2.5 2t-0.5 2q-6 26-1 39t26 24q9 6 19.5 9.5t20.5 6.5q2 1 4 1.5t4 1.5q3 0 5 0.5t5 1.5q-24 33-63.5 46t-80.5 3q-34-9-58.5-28.5t-45.5-43.5q-3-3-6.5-5.5t-7.5-2.5q-9 0-12.5 6.5t-1.5 13.5 3.5 15 4.5 16q2 7 4 14.5t4 15.5q-19 0-34.5-10t-30.5-21q-1 5-2.5 10t-1.5 9q-3 9-3 17.5t1 17.5v9t1 10q-29-10-49.5-28.5t-26.5-50.5h-5l-11 54q-2-1-3.5-2t-3.5-2-3.5-2.5-3.5-2.5q-18-16-28-35t-12-43q0-3-2.5-6.5t-2.5-4.5q-3 0-6.5 1.5t-6.5 3.5q-2 2-4.5 5t-3.5 5q-2 3-4.5 5t-4.5 5q-28 28-59.5 44.5t-72.5 14.5q-31-3-56-14.5t-43-37.5q8-2 15.5-4.5t14.5-4.5q15-5 30-13.5t21-20.5q2-7 2.5-15t0.5-18q-1-10-6-13.5t-14-4.5q-31-6-44.5-27.5t-4.5-51.5q1-3 2.5-6t2.5-6q0-3 1.5-6t4.5-6q7-8 10.5-17t3.5-19-0.5-19.5-1.5-19.5q-1-9-5-16t-12-13q-31-24-31.5-55t30.5-56q12-10 26.5-18.5t28.5-15.5q20-10 28.5-26t8.5-38q0-16-1-33t-1-35q-1-6-1.5-12.5t-0.5-11.5q-1-6-2-12.5t-2-12.5l-4-1q-4 5-7 9.5t-7 9.5q-8 9-14 20t-10 22q-2 6-4 11t-4 11q-23-19-34.5-52.5t-8.5-69.5q3-37 22-69.5t56-48.5q10-5 17-12t13-16q19-33 48-53t67-27q4 0 8-2t7-4q26-17 56-25.5t65-8.5 65 8.5 55 25.5q3 2 7 4t7 2q42 7 72.5 30t51.5 60q2 3 5 6l6 6q44 18 65.5 50.5t24.5 78.5q2 34-8 64t-35 55q-6-26-18-47t-34-37q-1 16-1 32t-1 32-1.5 31.5-0.5 31.5q0 18 8.5 31t24.5 21v0z" />
<glyph unicode="&#xe612;" glyph-name="travis" d="M853 583h-161v72h-72v-396h72v-197h-342v179h72v414h-72v-72h-179v251h682v-251zM990 960h-952q-12 0-20.5-12t-8.5-24v-952q0-14 8.5-25t20.5-11h952q14 0 19.5 11t5.5 25v952q0 12-5.5 24t-19.5 12v0zM314 637v54h144v-504h-54v-89h234v107h-72v503h162v-71h71v143h-574v-143h89z" />
<glyph unicode="&#xe613;" glyph-name="d3" d="M980 449q34 40 53.5 91t19.5 108q0 65-25 121.5t-67 99-99 67-121 24.5h-367q67-41 121.5-98t92.5-127h153q36 0 61.5-25.5t25.5-61.5-25.5-61.5-61.5-25.5h-90q5-27 8-55.5t3-57.5-3-56.5-8-55.5h90q36 0 61.5-25.5t25.5-61.5-25.5-61.5-61.5-25.5h-152q-8-15-17.5-30t-20.5-30q-35-49-79-90.5t-96-73.5h365q62 0 117.5 23t97.5 63.5 67.5 94.5 28.5 116v-8 22q1 57-18.5 108t-53.5 92v0zM486 162v0 0q1 0 1.5 1l0.5 1q1 1 1.5 2l0.5 1q40 61 62 132t22 149q0 106-40 199t-109.5 162.5-163 110-199.5 40.5h-91v-225h91q60 0 112-22.5t91-61.5 61.5-91.5 22.5-111.5q0-32-6.5-62.5t-19.5-58.5v0 0q-18-37-44.5-67.5t-60-52.5-73.5-34-83-12h-91v-225h91q66 0 127.5 16t116 45.5 100.5 71.5 80 93v0z" />
<glyph unicode="&#xe615;" glyph-name="angular" d="M510 361l-128-2-59-148-110-1 297 660v1h-1v1l1-1h1l1 2v-2h-1l-1-1 311-663-107 3-65 151h-139zM510 960l-482-170 77-630 406-224 408 227 77 630-486 167zM510 658l-88-210h189l-101 210z" />
<glyph unicode="&#xe616;" glyph-name="backbone" d="M275 307l58-34 141 80-129 73-70-40v-79zM236 735l108-62 130 74-374 213v-426l136 78v123zM550 747l130-74 108 62v-123l136-78v426zM749 386l-70 40-129-73 141-80 58 34v79zM100 406v-470l374 213v160l-238-135v234l238 135v160l-374-213v-84zM512 578v-13l276-157v-234l-276 157v-160l412-235v554l-412 235v-147z" />
<glyph unicode="&#xe618;" glyph-name="react" d="M603 449q0-38-26.5-65t-64.5-27-64.5 27-26.5 65 26.5 64.5 64.5 26.5 64.5-26.5 26.5-64.5v0zM971 540q-23 20-56 37.5t-73 30.5q-8 3-16.5 5.5t-16.5 5.5q1 5 2.5 11t2.5 11q19 93 6.5 160t-53.5 91q-10 6-21.5 9t-25.5 3q-38 0-85-23.5t-97-66.5q-6-6-12.5-11.5t-13.5-12.5q-4 5-8 8.5t-8 7.5q-52 46-102.5 71.5t-90.5 25.5q-14 0-26-3t-22-9q-20-12-33.5-35t-19.5-57q-5-30-3.5-67.5t9.5-78.5q2-8 3.5-16.5t4.5-17.5q-10-2-19.5-5t-18.5-7q-84-29-131-71t-47-87q0-24 13.5-48t40.5-46q24-21 58-39.5t75-32.5l14-4t14-5l-8-36q-17-87-4-148.5t52-84.5q11-6 23-9t26-3q40 0 89.5 24t99.5 67q5 5 10.5 10t10.5 10q7-7 14-13l14-12q48-42 94-64.5t84-22.5q13 0 25.5 3t22.5 9q20 12 34 36t20 58q6 32 5 70.5t-10 80.5q-1 7-2.5 14t-3.5 14q5 1 10 2.5t9 3.5q90 29 142 74t52 92q0 23-13.5 46t-39.5 45v0zM720 860q8 0 14-1.5t11-4.5q12-7 20.5-23.5t12.5-41.5q5-28 3-63.5t-10-75.5l-4-20q-32 7-66.5 12.5t-70.5 8.5q-21 30-43 57.5t-44 50.5q6 6 12 11.5t12 10.5q42 37 83 58t70 21v0zM655 366q-12-21-24.5-41t-24.5-39q-23-1-46.5-2t-47.5-1-47 0.5-46 2.5q-13 19-25.5 39t-24.5 40q-12 21-23 41.5t-20 41.5q10 21 20.5 41.5t22.5 40.5q12 21 24.5 40.5t25.5 38.5q23 2 46 3t47 1 47.5-1 45.5-3q13-18 25.5-38t24.5-40q12-21 23-41.5t21-40.5q-10-21-21-42t-23-41v0zM723 398q10-23 18.5-46t15.5-44q-22-5-46-9t-50-7q8 12 16 25t16 27q8 13 15 26.5t15 27.5v0zM514 167q-16 16-31.5 34.5t-30.5 38.5q15 0 30-0.5t30-0.5q16 0 31.5 0.5t30.5 1.5q-15-21-30-39.5t-30-34.5v0zM364 291q-26 3-49.5 6.5t-45.5 8.5q7 22 15.5 44.5t17.5 45.5q7-13 14.5-26t14.5-27l16-26t17-26v0zM302 499q-9 23-17.5 45t-14.5 44q22 5 45 9t48 7q-9-13-16.5-26t-15.5-26q-7-13-14.5-26t-14.5-27v0zM512 728q16-16 31-34.5t30-38.5q-15 1-30.5 1.5t-30.5 0.5-30-0.5-30-1.5q15 20 30 38t30 35v0zM693 553q-8 13-16 25.5t-16 25.5q25-3 48.5-7.5t45.5-9.5q-7-21-15-43t-18-45q-7 13-14.5 26.5t-14.5 27.5v0zM251 662q-7 37-8.5 70t2.5 60q4 23 12 38.5t20 22.5q5 3 11.5 4.5t14.5 1.5q32 0 75-23t88-63q4-3 8-6.5t8-7.5q-23-24-44.5-51t-42.5-57q-36-3-70.5-8.5t-66.5-12.5l-4 16t-3 16v0zM201 325q-37 12-67 28.5t-52 34.5q-19 16-28.5 31.5t-9.5 29.5q0 34 46.5 66t101.5 51q8 3 17 5.5t18 5.5q10-31 22.5-63.5t27.5-65.5q-15-34-28-67t-22-64q-7 2-13.5 3.5t-12.5 4.5v0zM304 37q-8 0-14.5 1.5t-12.5 4.5q-29 17-33.5 73t6.5 114q1 8 3 16.5t4 17.5q32-7 66.5-12t71.5-8q22-30 44-57.5t44-51.5l-9.5-9.5t-9.5-8.5q-44-38-86-59t-74-21v0zM774 241q17-84 5.5-135t-33.5-64q-5-3-11.5-4.5t-14.5-1.5q-14 0-52 12.5t-98 63.5q-6 5-12.5 11t-13.5 12q22 24 43.5 51.5t42.5 57.5q37 4 72 9t67 13q1-7 2.5-13t2.5-12v0zM816 324q-4-1-8-2.5t-9-2.5q-9 31-22 63.5t-30 66.5q16 33 28.5 65t21.5 62q8-2 15.5-4.5t15.5-4.5q36-13 65.5-28t49.5-33q18-15 27.5-29.5t9.5-27.5q0-26-39.5-61.5t-124.5-63.5v0z" />
<glyph unicode="&#xe619;" glyph-name="uniE619" d="M863 42q2 0 3.5 3t3.5 8 3.5 7 3.5 2l2-9q4-15 0-27.5t-16-22.5q-12-11-26-19t-29-14q-35-11-76.5-18.5t-90-11-104-4-118.5 1.5q-2 0-12.5 1.5t-29.5 3.5q-18 2-30.5 2.5t-17.5 1.5q-7 2-16 5.5t-21 8.5-22 10.5-19 12.5q66-8 129.5-12t123-3 117 6.5 111.5 15.5q3 2 8.5 2.5t14.5 2.5q7 1 12.5 2t10.5 2q5 2 10.5 4t12.5 3q7 2 12.5 5t10.5 4q5 2 10.5 5.5t10.5 6.5q5 2 9 5.5t9 8.5v0zM601 925q-2 4-2.5 9t-2.5 10-2 9.5v6.5q17-22 26-34.5t11-13.5q10-28 11.5-54t-7.5-50q-8-24-22-46.5t-33-43.5q-7-8-16-17t-21-19q-12-11-23.5-19.5t-20.5-15.5q-8-9-16.5-18t-17.5-21-14-24.5-7-26.5q-2-15 1.5-32t12.5-32q9-16 20.5-33t23.5-34 19-32.5 11-29.5q-16 10-38 29t-48 47q-44 47-61 86.5t-5 72.5q7 15 17 30.5t24 29.5q14 12 31 25.5t36 29.5q19 14 33 25.5t22 20.5q19 15 33 35.5t22 42.5q9 23 9.5 44t-6.5 43v0zM785 405q21 2 39.5-5t33.5-22q16-16 20-33t-1-36q-12-38-50.5-67t-103.5-48q-14-6-21.5-6.5t-8.5 1.5q-2 2 2 7t14 14q5 1 12 6t18 12q10 7 18.5 12.5t13.5 10.5 11.5 11 13.5 14q7 7 12.5 14.5t8.5 15.5q7 16 4 30t-15 26q-13 12-26.5 14t-29.5-5q-1 0-6.5-2t-13.5-5l-17-5 5 5q9 21 25 31t42 10v0zM389 396q3 0 12-1.5t25-5.5q-5-3-12-6.5t-16-4.5q-8-4-18-7t-19-5q-8-3-16-6.5t-14-4.5q-1 0-3-0.5t-3-2.5q-9-5-12-7t2-4q35-5 101-5t164 5q12 0 31.5 2t46.5 7q28 5 49 7t36 0q-5-3-17-10.5t-31-19.5q-9-3-17.5-6.5t-16.5-4.5q-9-4-17.5-6t-15.5-4q-8-1-17.5-1.5t-21.5-2.5-20.5-2.5-13.5-2.5q-100-8-176.5-5t-129.5 17q-7 1-12.5 4.5t-10.5 9.5q-6 5-4.5 11.5t6.5 13.5q33 21 73 33t88 15v0zM278 104q11 2 26.5-5t36.5-20q-35 5-64.5-1.5t-53.5-21.5q4-2 16-6.5t33-10.5q49-7 101-10.5t108-3.5 115 4.5 122 12.5q3 1 8.5 2t14.5 2q7 2 13.5 2.5t11.5 2.5q6 2 11 4t10 5q5 2 10 5t9 7q0 1-1.5 4.5t-3.5 8.5q-4 4-6 7t-3 5q-2 2-2 3.5t2 1.5q8-2 17-6t17-11q9-6 10.5-13.5t-3.5-15.5q-5-7-13-12.5t-17-10.5q-8-6-16.5-8t-13.5-4-15-5-24-6q-14-4-22-5.5t-10-1.5q-63-12-127.5-17t-130.5-4-133.5 8-135.5 20q-9 0-14.5 3.5t-10.5 12.5q-6 7-7 13.5t4 13.5q23 21 55.5 33.5t75.5 17.5v0zM730 737h-3q2-2 5.5-2t8.5 2q7 0 10-0.5t2-2.5q-2-1-4-3l-3-3q-9-6-23-14.5t-33-20.5-35.5-24-30.5-24-24.5-24.5-17.5-26.5q-5-14-1-31t17-38q14-22 21.5-34.5t8.5-16.5q12-32-5-63t-64-59q-8-6-16-8t-14-1q-3 2-1 6t11 13q10 8 16.5 19t8.5 24q2 12-1.5 24t-12.5 22q-15 18-25.5 37t-15.5 39q-6 21-3.5 41.5t14.5 41.5q26 40 78 71.5t132 55.5v0zM357 283q1 0 5 0.5t11 2.5q5 1 7.5 2.5t3.5-0.5q2 0-1-2t-8-7v-2.5t-2-2.5-3.5-2.5-3.5-1.5q-7-7-8.5-12t1.5-7q60-12 131.5-10t153.5 17q9-9 25-17.5t42-16.5q-43-13-85.5-22t-83.5-13-81-3.5-79 5.5q-2 2-5.5 2.5t-10.5 2.5q-9 2-14 2.5t-7 2.5q-3 1-8 3t-10 3q-5 2-10 5.5t-6 6.5q-4 2-7 5.5t-5 8.5q0 3 0.5 6.5t1.5 7.5q0 1 1.5 4t3.5 5l7 7q2 1 5 3l6 4q4 1 7 1.5t5 2.5 4 2.5 7 2.5q4 2 6 2.5t4 1.5v0zM380 175h11q9 2 11.5 1.5t0.5-3.5q-2-2-4-3.5t-5-3.5q-6-5-8-7.5t-4-4.5q47-12 104-12t124 12q5-1 11-3t14-6q7-5 14-8.5t14-5.5q7-3 13.5-6t11.5-5q-60-29-125.5-38.5t-134.5-0.5h-4t-7 2q-6 2-10.5 2.5t-5.5 2.5h-5.5t-6.5 2q-5 2-8.5 2.5t-5.5 2.5q-3 0-6.5 1.5t-7.5 2.5q-3 2-6 3.5t-5 3.5q-4 2-7 4t-5 5q-1 2-4 5l-5 5q-3 10 0 18.5t12 13.5q8 5 17.5 10t21.5 8v0z" />
<glyph unicode="&#xe61a;" glyph-name="mongo" d="M511 129h2v1l-1-1h-1zM742 568q-20 86-56.5 157.5t-72 123-62 80l-26.5 28.5q23-101 28-250.5t1.5-289-10.5-239l-7-99.5 39.5 32t83 94.5 73 153.5 9.5 209v0zM493 957v0 0q0 1-0.5 2l-0.5 1q-1-8-33-44t-71.5-96-73.5-141-38-179q-5-97 30.5-175t79.5-132.5 82-84l38-29.5 6.5 99.5t10 239-1 289-28.5 250.5v0zM525 48l-11 7.5t-28 22.5v0 0q27-40 23-91l-4-51h34l-2 41t3 67q2 7 10.5 18t12.5 17v0q-17-16-27.5-23.5l-10.5-7.5z" />
<glyph unicode="&#xe61b;" glyph-name="redis" d="M596 709l156 62 140-56-140-54-16-6-140 54zM430 709q0-7-4.5-13t-11.5-11q-9-6-20.5-10.5t-25.5-7.5q-15-4-31.5-6t-32.5-2q-18 0-34 2t-30 6q-15 3-27 7.5t-19 10.5q-9 5-13.5 11t-4.5 13q0 11 9 19t29 15q18 8 40.5 11t49.5 3q26 0 48.5-3t41.5-11q18-7 27-15t9-19v0zM532 553l-166 68 238 36-72-104zM646 785l-88-10-20-48-32 54-102 8 76 28-24 42 72-28 68 22-18-44 68-24zM1024 717v-100q0-7-10-16t-30-20q-9-4-28-13t-48-23q-30-13-60-25.5t-60-26.5q-31-13-61.5-25.5t-60.5-26.5q-30-13-49.5-22t-30.5-14q-22-12-40.5-18t-33.5-6q-16-1-33 3t-35 13q-11 5-60.5 26t-137.5 58q-89 36-140 57.5t-64 28.5q-21 11-31.5 19t-10.5 15v104q0-7 10.5-16t31.5-18q14-7 64.5-28.5t139.5-57.5q88-37 137.5-58.5t60.5-27.5q18-7 34.5-11t33.5-3q15 0 33 6t41 18q14 6 42.5 18.5t71.5 31.5q44 20 88.5 38.5t87.5 37.5q44 20 71 32t37 18q20 11 29 18.5t11 13.5v0zM1024 543v-102q0-7-10-16t-30-20q-14-7-62.5-28.5t-133.5-57.5q-86-37-136.5-59.5t-65.5-30.5q-23-10-41-16t-33-8q-17-1-33.5 3t-34.5 13q-9 5-36 17t-72 31q-45 18-90 36.5t-90 37.5q-47 20-75.5 32t-38.5 16q-21 11-31.5 19t-10.5 15v104q0-7 10.5-15t31.5-19q14-7 64.5-28.5t139.5-57.5q88-37 137.5-58t60.5-26q18-9 34.5-13t33.5-3q15 0 33 6t41 18q15 8 66 30.5t136 59.5q86 36 134.5 57.5t61.5 28.5q20 11 29 19t11 15v0zM1024 373v-100q0-7-10-16t-30-20q-14-7-62.5-28.5t-133.5-57.5q-86-37-136.5-59.5t-65.5-30.5q-23-12-41-18t-33-6q-17-1-33.5 3t-34.5 13q-9 5-36 16t-72 30q-45 20-90 38.5t-90 37.5q-47 18-75.5 30t-38.5 18q-21 11-31.5 19t-10.5 15v104q0-7 10.5-16t31.5-18q14-7 64.5-28.5t139.5-57.5q88-37 137.5-58.5t60.5-27.5q18-7 34.5-11t33.5-3q15 0 33 6t41 18q15 8 66 30.5t136 59.5q86 36 134.5 57.5t61.5 28.5q20 11 29 18.5t11 13.5v0z" />
<glyph unicode="&#xe61c;" glyph-name="heroku" d="M784-64h-152v559l-1.5 6t-3.5 19q-12 19-46 23.5t-90-5.5-133-34.5-176-62.5v519h158v-332q5 2 11.5 4t15.5 6q8 2 23 7t40 10q22 6 44 10t43 8q21 2 43.5 3t48.5-1q25-2 47-6t41-14q19-9 34-23t28-34q13-21 19-46t6-57v-559zM722 758h-168q14 17 27 37.5t28 47.5q15 24 26.5 44.5t18.5 37.5l15 35h173q-15-43-45-93.5t-75-108.5v0zM345 98l-160-160v318l160-158z" />
<glyph unicode="&#xe61d;" glyph-name="rails" d="M591 37l-18 68h82l36-74-100 6zM547 272l3 65 73-36 3-64-79 35zM553 460l23 50 56-44-15-62-64 56zM611 630l41 35 39-56-24-41-56 62zM752 677l-23 47 53 12 8-30-38-29zM890 718v29l50-11v-24l-50 6zM899 859l3 32 61-44-11-18-53 30zM652 894l-11 56 79-3 9-50-77-3zM465 832l-44 56 61 32 47-49-64-39zM338 715l-49-59-68 44 53 59 64-44zM192 477l-27-73-88 26 30 80 85-33zM1 102l12 94 97-6-18-100-91 12zM611-54h-501q-7 42-1 102t21 139q10 46 25 95t34.5 100.5 44.5 105.5 55 110q36 67 79 119t92.5 89 106.5 58.5 121 26.5q41 2 83-4.5t84-21.5q42-18 74-35.5t52-35.5l44-38-23-32q-3 2-7 6.5t-11 10.5q-7 5-21.5 11t-34.5 13q-20 6-42 8.5t-46 0.5q-46-5-94.5-29.5t-98.5-70.5q-51-46-80-108t-38-139q-6-50-5.5-106.5t11.5-116.5q11-59 23-107t27-83l26-68z" />
<glyph unicode="&#xe61e;" glyph-name="sass" d="M937 835q-11 45-51.5 74.5t-98.5 42-128 7-141-30.5q-42-15-85-34.5t-84.5-42.5-80-50-71.5-58q-78-73-98.5-132t-15.5-85q9-47 41.5-86t73.5-71.5 82.5-59.5 67.5-50v0q-7-4-35.5-19.5t-62.5-38-65-50.5-45-58q-28-62-7-103t42-47q67-19 130 9.5t100 83.5q35 53 36.5 113t-13.5 94q21 6 46.5 8t56.5-2q89-10 115-52.5t23-66.5q-3-23-17.5-36t-20.5-17-8-6-2-5q1-4 4-4.5t8 0.5q7 1 35 20.5t30 62.5q2 54-48 103.5t-143 48.5q-38-1-63-4.5t-43-10.5q-1 2-2.5 3.5l-2.5 2.5q-28 31-65.5 58t-71 56-55.5 61.5-19 73.5q0 15 7 41.5t33.5 61.5 80.5 78 150 90q78 39 147 55t123 14.5 89-17.5 46-40q16-34 0.5-79t-56.5-87.5-105-75-145-41.5q-62-7-95.5 9t-41.5 25q-9 10-12 11.5t-6-0.5q-5-3-3.5-9.5t3.5-11.5q5-13 25-32t54-30q29-10 97.5-9.5t156.5 34.5q49 19 91.5 53.5t71 77 40.5 89 1 91.5v0zM378 222q7-28 6.5-53t-8.5-49q-1-2-2-4.5t-2-5.5q-1-2-2-4.5t-2-5.5q-6-12-14-23.5t-17-21.5q-30-32-65-44t-53-2q-19 11-10 49.5t43 74.5q37 39 78 62l41 23q2 1 3.5 2t3.5 2v0z" />
<glyph unicode="&#xe61f;" glyph-name="haskell" d="M1024 478h-322l-80 120h402v-120zM1024 298h-200l-82 120h282v-120zM422 86h-182l242 362-242 362h182l482-724h-182l-150 226-150-226zM180 86h-180l240 362-240 362h180l242-362-242-362z" />
<glyph unicode="&#xe620;" glyph-name="scala" d="M884 309v9l-3 2q-1 2-2 3.5t-2 3.5l-5 5t-7 4q-10 7-20.5 12.5t-20.5 9.5q24 8 39 17.5t21 18.5l2 242v-1 5h-2l-3 7q-1 4-4.5 7t-8.5 7q-12 7-22.5 12t-21.5 9q24 9 39 18t21 18l2 242q-13-16-64-32t-140.5-32.5-217-33.5-294.5-35q-12-2-19.5-2.5t-12.5-0.5v-220l-2-1 2-25q47-2 95-8t98-15q26-5 51-10.5t48-11.5q-58-8-122.5-15.5t-137.5-15.5q-12-2-19.5-2.5t-12.5-2.5v-218h-2l2-25q59-2 118-10.5t119-22.5q11-3 22.5-6t23.5-6q-22-3-40-5t-31-3q-33-6-85.5-11.5t-126.5-14.5v-239q9 0 21.5 1.5t31.5 3.5q161 13 285.5 28.5t211 31.5 135.5 34 61 37l4 241-4-4zM446 553q-49 13-97 23t-93 17q84 8 157 16t134.5 16.5 112 17.5 90.5 18h5l4 2q2 1 4.5 1.5t4.5 0.5h8q17 0 36-6.5t39-18.5q2-2 3.5-2.5t1.5-1.5v-19q-21-9-54-18.5t-79-19-104.5-19-129.5-19.5q-10 3-21 6l-22 6zM254 268q85 8 158 16t135 16.5 112.5 17.5 90.5 18v0 1q7 1 14 2.5t13 3.5q15 0 33.5-7t38.5-20q4-2 5.5-2.5t1.5-2.5v-19q-13-6-29.5-11.5t-37.5-10.5q-39-11-96-21t-132-21q-21-3-41-5.5t-38-5.5q-68 19-125 32t-103 19v0z" />
<glyph unicode="&#xe621;" glyph-name="aws" d="M808 763l216 83v-305l-216-88v310zM528 530l5 316 233-93v-328l-238 105zM616 864l163 70 164-70-177-66-150 66zM282 753l216 80v-303l-216-87v310zM0 517l7 316 233-91v-330l-240 105zM87 851l164 72 164-72-175-63-153 63zM550 301l216 83v-306l-216-87v310zM271 67l4 317 234-94v-328l-238 105zM358 401l164 70 164-70-177-65-151 65z" />
<glyph unicode="&#xe622;" glyph-name="perl" d="M653 383q-3-2-6-8t-6-18q-5-14-8.5-22.5t-6.5-13.5q-8-10-13-19.5t-7-18.5q-1-12-7-20.5t-14-16.5q-5-4-11-10t-12-11q-8-6-11.5-12.5t-3.5-13.5q0-4 3-12t10-17q4-8 10-14.5t11-11.5q8-8 16-13.5t18-9.5q5-2 8.5-2t8.5 2q5 1 8.5 5t6.5 12q2 3 5 8t8 13q11 14 16.5 29.5t6.5 30.5q0 11 0.5 17.5t1.5 9.5q2 8 0.5 23t-6.5 37q0 5-1.5 15t-2.5 26q-2 16-5 25t-6 11q-2 2-2.5 2h-5t-3.5-2v0zM683 923q18 0 34-3t30-8q10-3 23-13t31-27q4-5 14-24.5t24-52.5q5-15 12.5-27.5t17.5-21.5q8-8 15.5-16.5t14.5-20.5q19-41 42.5-76.5t51.5-66.5q14-12 20.5-28t6.5-33q5-32 3.5-63t-9.5-61q-2-2-5.5-8t-11.5-16q-8-11-14-16.5t-7-6.5q-2-2-4.5-2h-4.5q-5 1-7 4.5t-4 8.5q-1 4 1 11t8 16q11 16 14.5 32.5t0.5 33.5v26q-2 8-2.5 14.5t-1.5 11.5q-4 14-8.5 20.5t-8.5 6.5q-5 0-11.5-11t-12.5-33l-6-60q0-40 1-65t3-33q2-4 2-10v-35t-2-13q-2-8-1.5-15t5.5-15 6.5-17 0.5-19q0-8-2-15t-5-15q-5-8-7-17.5t-3-20.5q0-10-0.5-16.5t-2.5-11.5q-3-11-1.5-24t8.5-29q6-18 8-27.5t0-11.5q0-1 0.5-5.5t1.5-9.5v-15q-17 2-36 5t-36 6v2q5 8 7 16t4 14q1 8 4.5 21t9.5 30q5 10 7 18t2 14q2 21 0.5 36t-2.5 26q-3 8-5 21t-2 30v34q-1 10-7 22.5t-14 26.5q-8 12-12.5 22.5t-6.5 18.5q-2 2-4 9.5t-7 18.5-8 19-5 15q-1 17-7 25.5t-14 8.5q-5 0-10-6t-11-17q-15-21-23-41.5t-9-37.5q-3-18-5-37t-2-38v-34l-2-7q-1-3-5.5-7.5l-9.5-9.5q-4-5-8.5-8.5t-6.5-8.5q-4-8-10.5-17t-12.5-17q-11-11-17.5-20.5t-8.5-17.5q-1-5 0-11t5-11q1-1 4.5-3t7.5-5q10-8 16-16.5t8-19.5q1-5 1-9.5t-1-8.5q-2-8-3.5-13t-5.5-10q-9 2-18.5 2h-17.5q-2 2-4.5 5t-3.5 8q-5 6-9.5 9.5t-8.5 3.5q-3 0-6-3t-6-8q-2-3-4.5-6t-4.5-5h-87q-2 2-2 2.5t2 2.5q0 3 6 7.5t17 9.5q8 3 13 6t8 7q12 8 17 17t5 19q-2 5-9 15.5t-21 26.5q-8 12-19 21.5t-26 17.5q-13 8-21 14.5t-13 10.5l-3.5 7t-2.5 6q-2 3-3.5 11t-1.5 21q0 15 3.5 26.5t9.5 20.5q5 8 8 17.5t5 21.5q0 6 1.5 12t2.5 11q2 10 1.5 16.5t-3.5 11.5q-3 3-9.5 4.5t-18.5 1.5v0h-8q-5-1-10-3t-9-5q-7-5-10-16t-3-27q-2-11-5.5-21t-9.5-22q-5-9-9-20.5t-6-26.5q-2-8-3-18.5t-1-21.5q1-13 1-21t-1-13q-2-5-5-11t-8-13q-5-11-8-21t-5-19v-14.5t-2-11.5q-2-6-3-13t-1-15q-2-8-3.5-17.5t-3.5-20.5h-21q-6-2-11-2h-21q2 1 2.5 3t1.5 3q2 2 2.5 4.5t1.5 4.5q2 1 2.5 3t2.5 3q1 2 1.5 2.5t2.5 1.5v5q6 11 10.5 24t6.5 27q3 19 4.5 32t-0.5 19q-1 3-1.5 11.5t-2.5 22.5v24.5t-2 14.5q-2 8-3 16t-1 16q0 11-2 23.5t-5 25.5q-3 19-3 38t3 36q2 10 1.5 16.5t-3.5 11.5q-5 7-14.5 8t-23.5-4q-15-3-30.5-2.5t-31.5 5.5q-16 4-30 10.5t-26 14.5-23.5 17.5-20.5 21.5q-5 4-11.5 12t-14.5 17q-8 10-14.5 19.5t-11.5 17.5q-4 8-7 16t-3 18q-5 43-6.5 67.5t-0.5 30.5q-1 10 2 22.5t11 26.5q7 14 11.5 24t5.5 14q-1 7-4.5 11.5t-8.5 8.5q-6 1-14 2.5t-18 3.5q-11 2-17.5 3.5t-9.5 2.5q-12 5-15.5 12t-1.5 16q3 13 10.5 22.5t18.5 13.5q7 4 17 5.5t24 3.5 22.5 2.5 13.5 1.5q15 3 26 8t19 11q11 8 22 13t21 5q48-2 76.5-37t36.5-104q1-10 0-19.5t-2-19.5q-2-11-6-22.5t-9-24.5q-5-12-8-22t-5-16 0-12.5 6-11.5q5-6 10.5-6t13.5 6q1 5 3 10.5t5 13.5q2 8 3.5 13.5t3.5 9.5q1 5 3 10t5 12q3 6 8 12t9 11q18 21 35.5 35.5t35.5 24.5q17 10 31.5 19.5t23.5 20.5q11 13 18 23t12 18q10 22 31 38.5t54 27.5q36 11 53.5 16l17.5 5q1 0 4.5 0.5t8.5 2.5h10z" />
<glyph unicode="&#xe623;" glyph-name="chef" d="M822 373h-71q-12-38-35-69t-54-53.5-67.5-35-76.5-12.5q-51 0-95.5 19t-78 52.5-52.5 78-19 95.5 19 95.5 52.5 78 78 52.5 95.5 19q40 0 76.5-12.5t67.5-35 54-53.5 35-69h71q-13 52-42 96t-69 75.5-89.5 49-103.5 17.5q-65 0-122-24.5t-99.5-67-67-99.5-24.5-122 24.5-122 67-99.5 99.5-67 122-24.5q54 0 103.5 17.5t89.5 49 69 75.5 42 96v0zM508 308q-23 1-44 10t-38 24l-52-52q28-26 62-40t72-16v74zM508 588v74q-43-2-80-19.5t-64.5-46.5-43.5-67-16-81q0-20 3.5-39t10.5-38l67 30q-4 11-6 23t-2 24q0 56 38 96t93 44v0zM718 523q-15 40-44.5 71.5t-68.5 49.5l-27-69q18-9 33-22t25-30h82zM718 373h-81q-11-17-26-30t-33-22l27-69q39 18 68.5 49.5t44.5 71.5v0zM89 335q-1 4-2 7.5t-2 7.5v3q-1 3-1.5 6t-1.5 6q0 2-0.5 3t-0.5 3-0.5 4.5-0.5 5.5q-1 2-1 4t-1 4q-1 12-2 24.5t-1 24.5h-69q0-13 1-26t3-26l-10-2 10 1q1-4 1.5-8t0.5-8l1-4q1-4 1.5-7.5t0.5-6.5q1-2 1-3t1-3v-1q0-3 1-5.5t1-5.5q1-2 1.5-4.5t0.5-4.5l1-2 2-7q0-2 1-4.5t1-5.5l1-3 1-2q4-13 8-25t9-24l63 28q-4 10-7.5 20t-7.5 21q-1 3-2 7l-2 8zM518 5q-43 0-84.5 8t-80.5 23.5-74.5 38.5-66.5 53l-49-49q36-34 77.5-61t86.5-45 93-27.5 98-9.5q95 0 181 33t153.5 91.5 112.5 138.5 59 174h-69q-14-79-53.5-146.5t-98-117-132-77-153.5-27.5v0zM518 891q70 0 135-20.5t122-61.5l41 55q-66 47-141.5 71.5t-156.5 24.5q-79 0-151.5-22.5t-134-64-110-100-77.5-130.5l63-25q26 62 68 112t96 86 116.5 55.5 129.5 19.5v0zM1024 523q-7 50-24 97t-43 90l-58-36q21-35 35-73t21-78h69zM677 828l-25-63q38-16 71-41t59-56 44.5-67.5 27.5-77.5h69q-9 51-31 97.5t-53.5 86-72.5 70.5-89 51v0zM508 792v68q-61-1-117.5-20t-105-52-86.5-79-62-102l64-25q19 46 51 84t72 65.5 87 43.5 97 17v0zM355 69l26 63q-46 20-84 51.5t-64.5 71.5-42 86.5-16.5 96.5h-68q1-61 19.5-117t51-104 78-86 100.5-62v0zM923 373h-69q-13-58-43.5-106.5t-73.5-84-96.5-56-112.5-22.5v-68q72 2 138 28t119 71 89 106 49 132v0z" />
<glyph unicode="&#xe624;" glyph-name="puppet" d="M146 21l-46-85h862l51 85h-867zM363 634l-352-609 49-89 400 698h-97zM460 876h94v-242l333-582h102l-339 582h1v242l53 84h-372l128-154v70zM646 181q0-20-14.5-34.5t-34.5-14.5-34 14.5-14 34.5 14 34 34 14 34.5-14 14.5-34v0zM659 221q5 15 7.5 30t2.5 31q0 78-55.5 133t-133.5 55q-15 0-29.5-2t-27.5-6v-23q9 3 18.5 4t19.5 1q61 0 104.5-43.5t43.5-104.5v-7.5t-1-7.5q-1-7-2-13.5t-3-13.5q17-1 32-10t24-23v0zM556 373q0-20-14.5-34t-34.5-14-34 14-14 34 14 34.5 34 14.5 34.5-14.5 14.5-34.5v0zM315 127q7-13 16.5-24.5t19.5-20.5l20 11q-7 7-13 14.5t-11 15.5q-30 53-14 112.5t69 90.5q3 2 6 3.5l7 3.5q6 2 12.5 4.5t13.5 3.5q-8 16-7.5 33t7.5 32q-14-3-28.5-8t-28.5-13q-68-39-88-114.5t19-143.5v0zM434 199q0-20-14-34.5t-34-14.5q-21 0-35 14.5t-14 34.5 14 34.5 35 14.5q20 0 34-14.5t14-34.5v0zM437 87q68-39 143.5-19t114.5 88q7 13 12.5 26.5t8.5 27.5l-20 11q-2-9-5.5-18t-8.5-17q-31-53-90-69t-113 14l-12 8q-6 4-11 8.5t-10 9.5q-10-14-25-22t-31-9q10-12 22-21.5t25-17.5v0z" />
<glyph unicode="&#xe625;" glyph-name="clojure" d="M491 439q-11-25-22-49.5t-21-49.5q-9-23-17-46.5t-11-48.5q-1-7-1.5-14.5t-0.5-14.5v-13q1-6 2-7.5t7-3.5q13-5 27-8t29-5q28-3 57.5 0t56.5 13q-21 19-35 45t-25 53q-14 36-25 73.5t-21 75.5q-4-8 10-47t-10 47v0zM512 959q-61 0-120.5-14.5t-113-42-100-67.5-81.5-89q43 24 89 34.5t96 2.5q19-3 38-8.5t36-14.5q4-1 7-3l6-4q2-1 4.5-2.5t4.5-3.5q4-2 5.5-1t5.5 2q12 5 24.5 9t24.5 7q41 10 82 8.5t80-12.5 74.5-31 65.5-49q42-42 67.5-97.5t28.5-115.5q4-69-21-135t-75-115q46-5 94 0.5t89 28.5q37 22 60.5 57t34.5 76q6 23 6 48.5t-2 49.5q-1 20-3.5 39.5t-6.5 38.5q-8 37-21.5 73t-32.5 69q-33 60-81 108.5t-106.5 82.5-124 52.5-134.5 18.5v0zM791 135q-25 0-49.5 3.5t-48.5 8.5q-5 1-10.5 2t-10.5 3q-4 1-9.5 3t-9.5 0l-24-10t-24-8q-43-13-88.5-13.5t-88.5 10.5q-74 20-132 72t-86 123q-19 47-22 97t9 98 37.5 91.5 63.5 76.5q-74 18-144-10.5t-111-91.5q-12-19-21-39t-16-40q-6-21-6-44.5t1-44.5q2-39 10-77t22-75q27-72 74-132.5t108.5-104.5 134-69 149.5-27q64-2 125.5 12.5t117 42.5 104 69 84.5 93q-34-8-69-13t-70-6q-12 0 9.5 0.5t-9.5-0.5v0zM651 237q4-2 8.5-3.5t8.5-2.5q5-1 9 2.5t8 6.5q8 7 16 15t15 16q14 16 25.5 34t19.5 37q16 39 20 80.5t-5 81.5q-16 75-70 131.5t-129 74.5q-37 10-75.5 8.5t-74.5-13.5q47-54 67-119.5t40-130.5q9-28 19-55t22-54q7-16 15.5-32.5t18.5-31.5q8-12 18.5-25.5t23.5-19.5q3-1-2.5 1t2.5-1v0zM357 669q-53-37-83.5-95t-31.5-122q-1-66 29-125t83-98q12 52 38 100.5t50 95.5l16 32q3 5 5.5 10l4.5 9q3 6 4.5 9.5t-0.5 9.5q-7 18-14 35.5t-15 34.5q-16 32-35.5 59t-50.5 45q-52-37-20.5-22t20.5 22v0z" />
<glyph unicode="&#xe626;" glyph-name="erlang" d="M833 330q-41-66-101-117.5t-142-51.5q-60 0-102 24t-68.5 66-39 99-12.5 123h596q0 5 0.5 9.5t0.5 7.5h-1q-3 92-40.5 171.5t-99 139-143 93.5-174.5 34q-92 0-173.5-34t-143.5-93.5-99-139-41-171.5h-1q0-3 0.5-6t0.5-6q0-1-0.5-3t-0.5-3q0-95 33-180t92.5-149.5 144-102 188.5-37.5 178 19.5 127.5 54 91 82 69.5 101.5l-140 70zM521 756q55 0 91.5-36.5t37.5-96.5h-272q5 60 46.5 96.5t96.5 36.5v0z" />
<glyph unicode="&#xe627;" glyph-name="lisp" d="M813 260q0-55-52.5-57t-52.5 53l2 187q0 49 46 93t116 45q52 0 52.5 53.5t-52.5 53.5h-526q-39 0-57-20t-17-49v-311q0-55-52.5-54.5t-52.5 54.5l-0.5 38.5t-1 90.5-0.5 105v83q0 59 45 116t133 57h527q76-1 115.5-49.5t38.5-106.5q0-79-48.5-123.5t-94.5-44.5q-35 0-50.5-18.5t-15.5-50.5l-2-145zM1 631l-1-368q4-78 51.5-120.5t107.5-44.5l343 3q61 0 104 45t43 112q0 63-40 109t-118 48q-56 0-56 54t56 54h155q53 0 52.5 55.5t-52.5 55.5l-165-2q-61 0-108-45t-47-112q1-67 43.5-116.5t114.5-49.5q56 0 55.5-53.5t-54.5-53.5h-304q-31 0-51.5 17.5t-20.5 55.5l-2 355q0 60-53 59.5t-53-58.5v0z" />
<glyph unicode="&#xe628;" glyph-name="csharp" d="M272 571q35 0 63.5-17.5t44.5-45.5l129 71q-34 63-97.5 101.5t-140.5 38.5q-56 0-105.5-21t-86-58-58-86.5-21.5-105.5 21.5-105.5 58-86.5 86-58 105.5-21q77 0 140.5 38.5t97.5 101.5l-128 71q-16-29-45-47t-64-18q-51 0-87.5 36.5t-36.5 87.5q0 52 36.5 88t87.5 36v0zM1024 488v109h-89v111h-109v-111h-80v111h-109v-111h-89v-109h89v-80h-89v-109h89v-111h109v111h80v-111h109v111h89v109h-89v80h89zM826 408h-80v80h80v-80z" />
<glyph unicode="&#xe629;" glyph-name="go" d="M659 713q-19 0-32-13t-13-32 13-32 32-13 32 13 13 32-13 32-32 13v0zM647 673q-6 0-10 4t-4 10 4 10.5 10 4.5 10-4.5 4-10.5-4-10-10-4v0zM506 569q-10 0-20.5-5.5t-14.5-19.5q-8-29 39-27.5t45 19.5q-1 11-12 22t-37 11v0zM365 713q-19 0-32.5-13t-13.5-32 13.5-32 32.5-13q18 0 31.5 13t13.5 32-13.5 32-31.5 13v0zM377 673q-6 0-10.5 4t-4.5 10 4.5 10.5 10.5 4.5 10-4.5 4-10.5-4-10-10-4v0zM904 825q-20 41-57.5 26t-49.5-2q-62 64-133 86t-130 25h-44q-59-1-130-24t-133-87q-12-13-50 2t-57-26q-23-47 19-62t38-36q-7-38-4-91t8-109q3-26 0-61.5t-6-76.5q16-1 27-17.5t11-39.5q0-24-11.5-40.5t-28.5-16.5h-5q0-75 17.5-147.5t74.5-123.5q5 3 10.5 4.5t11.5 1.5v0q12 0 23.5-5.5t22.5-12.5q4-3 9-6t10-5q8-4 12-10.5t4-14.5q34-7 74.5-10.5t79.5-4.5h1q38 1 75 4.5t68 10.5q-1 8 3 16t13 13q5 2 9.5 5t9.5 6q11 7 22 12.5t24 5.5q6 0 12.5-2t11.5-5q56 51 73 123t16 146q-2 0-4.5-0.5t-4.5-0.5q-17 0-29 16.5t-12 40.5 12 40.5 29 16.5h3q-3 41-6 76.5t0 61.5q5 56 7.5 109t-3.5 91q-4 22 38 36.5t19 61.5v0zM181 783q-1-7-16.5 5.5t-5.5 25.5q9 11 21 9.5t14-7.5q1-6-4.5-10t-8.5-23v0zM254 673q7 60 48 88.5t71 25.5q100-12 101-88.5t-37-110.5q-71-62-131.5-20.5t-51.5 105.5v0zM537 429q-6-4-25.5-2.5t-28.5 2.5q-14 2-12.5 21.5t3.5 21.5q3 1 30 2.5t38-5.5q7-5 7-19t-12-21v0zM593 519q-4-30-80-31.5t-82 33.5q-4 22 14.5 36t66.5 21q19 2 51.5-16t29.5-43v0zM586 588q-38 34-37 110.5t101 88.5q31 3 71.5-25.5t48.5-88.5q8-64-52-105.5t-132 20.5v0zM842 783q-3 19-8.5 23t-3.5 10q1 6 13.5 7.5t20.5-9.5q11-13-5-25.5t-17-5.5v0zM761-19l-1 1q-1 1-2.5 2t-2.5 2l-1 1q-1 1-2.5 1.5t-2.5 1.5h-4t-2 1h-2q-1 0-2-0.5t-3-0.5v0 0q-2 0-3-0.5l-3-1.5h-0.5t-0.5-1q-1 0-2.5-0.5t-2.5-0.5q0-1-0.5-1h-1.5q-1-1-2-1.5t-2-1.5l-1-1q-2-1-3.5-2t-3.5-2q-1 0-2.5-1t-3.5-2q0-1-0.5-1t-1.5-1q-1 0-2.5-1t-2.5-2q-1 0-1.5-0.5l-0.5-0.5-8-4-3-3v-3q0-1 0.5-2t1.5-2v-0.5t1-0.5q0-1 1-1.5t2-1.5h1q1-1 2.5-2t3.5-2h1q2-1 3.5-1.5t3.5-1.5h1q2-1 4-1.5t5-0.5h2q2-1 4-1h13t2 1h5q1 1 1.5 1h1.5q2 0 3.5 0.5t2.5 1.5h3q3 1 5 2t5 2q9 5 9.5 11t-5.5 15q-2 2-3 3.5t-3 3.5v0zM339-43q0 1-0.5 1.5l-1.5 1.5-8 4q-1 0-1.5 0.5l-0.5 0.5q-2 1-3 2t-2 1q-1 1-1.5 1t-1.5 1-2.5 1.5-2.5 1.5q-2 1-3.5 2t-3.5 2l-1 1-3 1.5t-2 1.5h-0.5t-1.5 1q-1 0-2 0.5t-2 0.5q0 1-0.5 1h-1.5q-1 1-2.5 1.5t-2.5 0.5h-1q-1 0-2 0.5t-3 0.5v0 0 0 0h-1q-1-1-2-1h-4q-1-1-2.5-1.5t-2.5-1.5q-1 0-1-0.5t-1-0.5l-4.5-4.5t-1.5-0.5q-1-2-2.5-3.5t-2.5-3.5q-6-9-5.5-15t9.5-11q2-1 4.5-2t4.5-2h3q2-1 3.5-1.5t2.5-0.5h2t2-1h5q1-1 2-1h13t4 1h2q2 0 4.5 0.5t4.5 1.5h1q2 1 3.5 1.5t2.5 1.5h2q2 1 3.5 2t2.5 2v0 0q1 1 2 1.5t2 1.5l1 1q0 1 1 2t1 2v0 0 3h-1zM190 332q0 14-5.5 24t-11.5 10q-7 0-12.5-10t-5.5-24q0-15 5.5-24.5t12.5-9.5q6 0 11.5 9.5t5.5 24.5v0zM846 366q-6 0-12-10t-6-24q0-15 6-24.5t12-9.5 11.5 9.5 5.5 24.5q0 14-5.5 24t-11.5 10v0z" />
<glyph unicode="&#xe62a;" glyph-name="coffeescript" d="M285 750q34-32 91-31.5t127 34.5q57 28 91.5 37.5t72.5 9.5q34 0 51.5-7t17.5-22q0-21-48-27t-69 14q-11 9-15.5 10t-16.5-7q-16-10-17-16.5t12-16.5q12-12 29.5-16.5t50.5-4.5q56-1 92.5 16.5t36.5 46.5q0 46-77 67t-163-1q-15-4-33-11t-29-13q-12-7-28.5-16.5t-28.5-16.5q-29-17-69-20.5t-53 8.5q-11 12-10.5 18.5t13.5 13.5q8 4 22.5 5t33.5-1q25-3 33-2t8 7q0 10-21 17t-40 4q-41-6-53-9.5t-17-9.5q-13-15-11.5-30.5t17.5-29.5v0zM70 692q21-17 61-31.5t105-27.5q77-15 137-19.5t179-4.5q74 0 137.5 4.5t117 12.5 96 20.5 75.5 28.5q40 20 43.5 46t-30.5 46q-15 9-17.5 9t0.5-10q5-15-1-27t-26-24q-18-11-70-25.5t-91-19.5q-14-1-28.5-3.5t-21.5-3.5q-14-4-68.5-5.5t-119-1-125 2.5-86.5 5q-87 11-144.5 29.5t-74.5 41.5q-10 12-10 17t7 17q9 14 4.5 14.5t-25.5-10.5q-38-20-44-39.5t20-41.5v0zM1001 629q-28-19-72-33.5t-100-23.5q-11-1-22.5-3.5t-17.5-3.5q-25-5-83-8t-125-4.5-130.5 0-99.5 5.5q-104 11-178 31.5t-103 45.5l-16 14 5-29q1-12 6.5-36t11.5-45l16-52-36-38q-57-63-57-135.5t57-122.5q34-28 83.5-33.5t86.5 15.5q8 5 7 6t-14 2q-28 0-65 25.5t-58 57.5q-11 17-18 48.5t-4 51.5q2 17 15.5 45.5t19.5 28.5q2 0 8-10t12-24q7-14 27-46t42-63q36-51 60.5-97t25.5-64q0-13 33.5-34t72.5-34q34-10 60.5-13.5t84.5-3.5q126 0 189 29t82 96q5 16 17 39.5t25 40.5q64 88 86.5 127.5t45.5 101.5q7 20 15.5 48.5t13.5 48.5q4 20 8.5 37t5.5 20-5.5 1-17.5-9v0z" />
<glyph unicode="&#xe62b;" glyph-name="c" d="M543 227q-45 0-85.5 17t-70 47-47 70-17.5 86q0 45 17.5 85.5t47 70 70 47 85.5 17.5q62 0 113-31t79-82l229 127q-31 55-75 101t-98.5 79-117.5 51-131 18q-100 0-187.5-38t-153-103.5-103.5-153-38-187.5 38-187.5 103.5-153 153-103.5 187.5-38q68 0 131 18t117.5 51 98.5 79 75 101l-228 126q-28-51-79-82.5t-114-31.5v0z" />
<glyph unicode="&#xe62c;" glyph-name="cplusplus" d="M483 227q-46 0-86 17t-70 47-47 70-17 86q0 45 17 85.5t47 70 70 47 86 17.5q62 0 113-31t79-82l228 127q-30 55-74.5 101t-98.5 79-117 51-131 18q-100 0-188-38t-153-103.5-103-153-38-187.5 38-187.5 103-153 153-103.5 188-38q68 0 131 18t117 51 98.5 79 74.5 101l-227 126q-28-51-79.5-82.5t-113.5-31.5v0zM528 608h-98v-111h-111v-98h111v-111h98v111h111v98h-111v111zM914 608h-99v-111h-110v-98h110v-111h99v111h110v98h-110v111z" />
<glyph unicode="&#xe62d;" glyph-name="jquery" d="M876 570q-50 0-94 19t-77 52-52 77-19 94q0 42 13 79.5t37 68.5q-44-33-70-83.5t-26-109.5q0-50 19-94.5t52-77.5 77.5-52 94.5-19q59 0 109.5 26t83.5 70q-31-24-68.5-37t-79.5-13v0zM366 690q0 66 21.5 126.5t58.5 108.5q-34-26-62.5-60t-48-73-30.5-83-11-91q0-81 30.5-151.5t83-123 123-83 151.5-30.5q47 0 91 11t83 30.5 73 48 60 62.5q-48-37-108.5-58.5t-126.5-21.5q-80 0-150.5 30.5t-123.5 83.5-83.5 123.5-30.5 150.5v0zM99 568q0 45 7.5 88.5t21.5 84.5 34.5 78.5 46.5 71.5q-48-36-86.5-82.5t-65.5-100.5-42-114.5-15-125.5q0-110 42-207t114-169 169-114 207-42q65 0 125.5 15t114.5 42 100.5 65.5 82.5 86.5q-34-26-71.5-46.5t-78.5-34.5-84.5-21.5-88.5-7.5q-111 0-208 42t-169 114-114 169-42 208v0z" />
<glyph unicode="&#xe62e;" glyph-name="js" d="M291 307q0-55-21-73.5t-57-18.5q-38 0-57.5 22.5t-36.5 52.5l-119-72q26-55 78.5-94t140.5-39q49 0 89 13t68.5 40 44.5 68.5 16 98.5v498h-146v-496zM830 517l-37 16q-47 20-68 38t-21 51q0 26 18.5 44t51.5 18q31 0 53-14.5t40-47.5l114 73q-36 63-87 90t-120 27q-49 0-88.5-15t-67.5-41-43-61-15-76q0-90 48-138.5t127-81.5l37-16q49-22 77.5-40.5t28.5-56.5q0-31-27-51.5t-72-20.5q-54 0-87.5 25t-56.5 64l-119-69q32-64 98-107t168-43q52 0 96.5 13.5t76.5 39.5 50.5 64 18.5 87q0 91-50.5 140t-143.5 89v0z" />
<glyph unicode="&#xe62f;" glyph-name="nodejs" d="M927 733l-376 217q-17 10-39 10t-39-10l-376-217q-18-10-28.5-28.5t-10.5-39.5v-433q0-21 10.5-39.5t28.5-29.5l99-56q35-18 52.5-21t33.5-3q53 0 82 30.5t29 86.5v428q0 4-3 7.5t-8 3.5h-47q-5 0-8-3.5t-3-7.5v-428q0-25-24-42t-66 4l-103 60q-3 1-4.5 4t-1.5 6v433q0 3 1.5 5.5t4.5 4.5l375 216q3 2 6 2t6-2l375-216q3-2 4.5-4.5t1.5-5.5v-433q0-3-1.5-6t-4.5-5l-375-216q-3-2-6-2t-6 2l-96 57q-2 1-4.5 1.5t-5.5-0.5q-19-12-28-16t-28-10q-5-2-8-5t11-11l126-74q9-6 19-8.5t20-2.5 20 2.5 19 8.5l376 216q18 11 28.5 29.5t10.5 39.5v433q0 21-10.5 39.5t-28.5 28.5v0zM628 300q-75 0-99 19t-30 56q0 4-3 6.5t-7 2.5h-49q-4 0-7.5-3.5t-3.5-7.5q0-47 38-93t161-46q89 0 138 34t49 95-42 83.5-128 34.5q-88 11-108.5 20.5t-20.5 29.5q0 17 16 35t81 18q58 0 83-15t34-54q1-3 4-5.5t7-2.5h48q2 0 4.5 1t3.5 2q2 2 2.5 4.5t0.5 4.5q-6 67-51.5 99t-135.5 32q-80 0-125.5-32t-45.5-89q0-61 44.5-84t121.5-31q92-9 112.5-22.5t20.5-31.5q0-31-27-45.5t-86-14.5v0z" />
<glyph unicode="&#xe630;" glyph-name="php" d="M771 522h-45l-18-106h42q24 3 42.5 16t21.5 58q0 16-12 24t-31 8v0zM302 522h-46l-18-106h43q23 3 41.5 16t21.5 58q0 16-12 24t-30 8v0zM512 715q-106 0-199.5-21t-163-57.5-109.5-85-40-103.5 40-103.5 109.5-85 163-57.5 199.5-21 199.5 21 163 57.5 109.5 85 40 103.5-40 103.5-109.5 85-163 57.5-199.5 21v0zM288 364h-64l-14-74h-66l56 284h130q42-2 63-23t21-57q0-64-41-98.5t-85-31.5v0zM540 364l25 130q2 13-0.5 20.5t-20.5 7.5h-53l-32-158h-66l56 284h67l-15-74h64q42-2 58.5-21t11.5-45l-25-144h-70zM757 364h-63l-14-74h-66l56 284h130q42-2 63-23t21-57q0-64-41-98.5t-86-31.5v0z" />
<glyph unicode="&#xe631;" glyph-name="ruby" d="M768 832h-512l-256-256 512-512 512 512-256 256zM128 576l192 192h384l192-192-384-384-384 384zM704 704h-192v-448l320 320-128 128z" />
<glyph unicode="&#xe632;" glyph-name="git" d="M1005 494l-447 447q-20 19-47 19t-47-19l-104-104 79-78q9 4 19.5 6.5t21.5 2.5q40 0 68-28t28-68q0-11-2.5-21.5t-6.5-19.5l128-128q9 4 19.5 6.5t21.5 2.5q40 0 68-28t28-68-28-68-68-28-68 28-28 68q0 11 2.5 21.5t6.5 19.5l-128 128q-2-1-4.5-2t-4.5-2v-266q28-10 46-35t18-56q0-40-28-68t-68-28-68 28-28 68q0 31 18 56t46 35v266q-28 10-46 35t-18 56q0 11 2.5 21.5t6.5 19.5l-78 79-296-296q-19-20-19-47t19-47l447-447q20-19 47-19t47 19l445 445q19 20 19 47t-19 47v0z" />
<glyph unicode="&#xe633;" glyph-name="shell" d="M0 896v-896h1024v896h-1024zM960 64h-896v768h896v-768zM896 768h-768v-640h768v640zM448 448h-64v-64h-64v-64h-64v64h64v64h64v64h-64v64h-64v64h64v-64h64v-64h64v-64zM704 320h-192v64h192v-64z" />
<glyph unicode="&#xe634;" glyph-name="html5" d="M61 960l82-922 368-102 370 103 82 921h-902zM785 659h-433l10-116h412l-31-347-232-64-231 64-16 177h114l8-90 125-34h1l126 34 13 147h-392l-30 342h566l-10-113z" />
<glyph unicode="&#xe635;" glyph-name="html" d="M576 224l96-96 320 320-320 320-96-96 224-224zM448 672l-96 96-320-320 320-320 96 96-224 224z" />
<glyph unicode="&#xe637;" glyph-name="python" d="M389 466h244q51 0 86.5 36.5t35.5 87.5v233q0 50-36 84.5t-86 42.5q-31 5-63.5 7.5t-63.5 2.5-60.5-2.5-56.5-7.5q-77-14-99.5-44t-22.5-83v-93h244v-31h-336q-53 0-95.5-31.5t-56.5-92.5q-17-70-17.5-122.5t17.5-125.5q13-54 44.5-89t85.5-35h84v112q0 60 45 105.5t107 45.5v0zM374 792q-19 0-32.5 13.5t-13.5 32.5q0 20 13.5 33.5t32.5 13.5 32.5-13.5 13.5-33.5q0-19-13.5-32.5t-32.5-13.5v0zM1000 575q-13 53-41 88.5t-81 35.5h-92v-109q0-63-46-108.5t-107-45.5h-244q-50 0-86-37t-36-88v-232q0-50 37-80t85-44q58-17 116.5-19t127.5 19q46 13 84 42t38 82v93h-244v31h367q53 0 78 34t44 90q19 57 18.5 115.5t-18.5 132.5v0zM649 110q19 0 32-13.5t13-33.5q0-19-13-32.5t-32-13.5-32.5 13.5-13.5 32.5q0 20 13.5 33.5t32.5 13.5v0z" />
<glyph unicode="&#xe638;" glyph-name="ux" d="M166 427q0 54 39 93t94 39h170v81h-170q-44 0-83-17t-68-45.5-46-67.5-17-83 17-83 46-68 68-46 83-17h170v81h-170q-55 0-94 39t-39 94v0zM341 384h342v85h-342v-85zM725 640h-170v-81h170q55 0 94-39t39-93q0-55-39-94t-94-39h-170v-81h170q44 0 83 17t68 46 46 68 17 83-17 83-46 67.5-68 45.5-83 17v0z" />
<glyph unicode="&#xe639;" glyph-name="design" d="M194 741l22-22-90-90 70-70 90 91 21-21-91-90 70-69 205 205-250 249-205-205 68-68 90 90zM739 427l-205-205 69-70 90 91 21-21-91-90 71-70 89 90 22-22-90-90 68-68 205 205-249 250zM954 690q19 18 19 44.5t-18 45.5l-113 112q-18 19-44.5 19t-45.5-19l-69-70 202-202 69 70zM109 130l84-84 169 60-193 193-60-169zM661 802l-477-477 204-203 477 476-204 204zM277 326l383 383 23-22-384-383-22 22zM322 281l383 384 22-23-383-383-22 22zM366 237l384 383 22-22-383-384-23 23zM63 0l98 35-63 63-35-98z" />
<glyph unicode="&#xe63a;" glyph-name="django" d="M476 960h167v-775q-64-12-115-17.5t-102-5.5q-77 0-135 17.5t-97.5 51-59 84-19.5 117.5q0 64 20 116t58 88.5 91 56.5 119 20q20 0 37-1.5t36-6.5v255zM476 570q-15 5-28 7t-29 2q-64 0-99-37.5t-35-106.5q0-67 34.5-102.5t98.5-35.5q14 0 27 1t31 3v269zM909 701v-388q0-100-8.5-155.5t-30.5-97.5q-20-40-50.5-68t-86.5-56l-155 74q55 26 85 51.5t47 60.5q18 36 25 88t7 161v330h167zM742 959h167v-172h-167v172z" />
<glyph unicode="&#xe63b;" glyph-name="uniE63B" d="M856 326q-16-27-49-49t-78-38-100.5-25-116.5-9-116.5 9-100.5 25-78 38-49 49q-7 11-10.5 8t-3.5-9v-102q0-38 28-74t76.5-64.5 114-46.5 139.5-18 139.5 18 114 46.5 76.5 64.5 28 74v102q0 6-3.5 9t-10.5-8v0zM857 588q-16-24-49-43.5t-78-33.5-100.5-22-117.5-8-117.5 8-100.5 22-78 33.5-49 43.5q-7 9-10 6.5t-3-6.5v-121q0-34 28-63.5t76.5-52 114-35 139.5-12.5 139.5 12.5 114 35 76.5 52 28 63.5v121q0 4-3 6.5t-10-6.5v0zM512 922q-74 0-139.5-11t-114-29-76.5-42.5-28-52.5v-65q0-29 28-55t76.5-45.5 114-31 139.5-11.5 139.5 11.5 114 31 76.5 45.5 28 55v65q0 28-28 52.5t-76.5 42.5-114 29-139.5 11v0z" />
<glyph unicode="&#xe63c;" glyph-name="asp" d="M748 952l-384-371-229 175-135-47v-522l135-47 229 175 384-371 276 128v752l-276 128zM108 325v246l123-123-123-123zM738 281l-182 167 182 167v-334z" />
<glyph unicode="&#xe63d;" glyph-name="expressjs" d="M145 255q11-42 28-79t39-68q23-32 52.5-56.5t66.5-42.5q36-19 80-28t97-9q77 0 141 20.5t115 60.5q51 41 83 101.5t44 141.5h38q-10-85-44-151.5t-91-114.5q-57-47-127.5-70.5t-154.5-23.5q-57-1-106 8t-90 28q-40 19-73 46t-59 62-45 76-31 88q-13 47-19 98t-6 105q0 61 9 115.5t27 101.5q18 48 42 88.5t53 73.5q30 32 64 57t74 43q39 17 79 25.5t81 8.5q57 0 106.5-11t90.5-33q42-22 75.5-51t59.5-65q27-36 46-77.5t31-88.5 17-95.5 3-99.5h-820q1-49 7-95t17-89v0zM878 648q-13 41-31 76.5t-43 65.5q-24 31-54 55t-67 42q-36 17-78 26t-89 9q-41 0-78-7.5t-72-23.5q-35-15-65.5-37t-56.5-51-47.5-64-37.5-76-25.5-87.5-12.5-97.5h782q0 44-6.5 87t-18.5 83v0z" />
<glyph unicode="&#xe63e;" glyph-name="websockets" d="M960 129l-63 63h-444l-105 105 45 44 88-88h181l-179 179 23 22 23 23 178-178v180l-88 89 21 21q9 9 16 15t8 6 16.5-15 36.5-36l51-51 1-127v-127h128l1 152v153l-144 144-44-44q-18-19-31.5-32t-14.5-13-34 32.5-78 77.5l-110 110h-442l130-130h262l91-92-135-135-93 94v72l-64-1h-63l-1-63v-63l220-220-89-90 144-144h311q64 0 120.5 0.5t99 0.5 67 0.5l24.5 0.5q0 1-18.5 20t-45.5 45v0z" />
<glyph unicode="&#xe63f;" glyph-name="powershell" d="M122-60q-19 5-33.5 13.5t-28.5 22.5q-11 10-16 17t-10 17q-13 25-14 66.5t-1 371.5q0 279 0.5 337t2.5 69q7 30 26 54t46 37q26 12 63.5 13.5t313.5 1.5h328l207-204-1-353q-1-297-2-332t-14-61q-5-10-10-17t-16-17q-14-15-28.5-23t-34.5-13q-11-3-62.5-3.5t-326.5-0.5q-272 0-325 0.5t-64 3.5v0 0zM884 21q9 3 17 9.5t14 15.5l5 9 1 654h-164v167h-306q-75 0-132.5-0.5t-97-0.5-60.5-0.5-23-0.5q-8-3-17.5-11.5t-13.5-17.5l-5-11v-385q0-316 1-357t10-53q5-6 12.5-11t14.5-7q2-1 28-1.5t73.5-0.5 115.5-0.5 154-0.5q236 0 301.5 0.5t71.5 2.5v0 0zM504 177q-1 0-4 2.5t-5 4.5q-11 11-8.5 28.5t17.5 29.5q11 10 27.5 11.5t92.5 1.5q66-1 79.5-1.5t18.5-3.5q8-4 11.5-11.5t1.5-17.5q-1-10-5-18t-12-15q-11-10-24.5-11.5t-91.5-1.5q-38 0-67 0.5t-31 1.5v0 0zM298 179q-6 1-12 4.5t-10 8.5q-6 7-4.5 18.5t9.5 21.5q3 3 49 36t108 76q62 44 106.5 75.5l44.5 31.5q0 1-28 33t-68 76q-48 54-72 82t-26 32q-3 8-0.5 16.5t10.5 16.5q9 11 20 14.5t21-1.5q4-2 39-40t76-84 75.5-85.5 37.5-44.5q4-9 4-19t-4-19q-3-5-31.5-26t-139.5-98q-68-48-118.5-83t-53.5-36q-7-4-16.5-5.5t-16.5-0.5v0 0z" />
<glyph unicode="&#xe640;" glyph-name="github2" d="M675 394q-28 0-47.5-27t-19.5-65 19.5-65.5 47.5-27.5q27 0 46.5 27.5t19.5 65.5-19.5 65-46.5 27v0zM907 634q5 14 1 82t-34 144l-64-17t-169-89q-22 6-57 9t-72 3-72-3-57-9q-105 72-169 89l-64 17q-30-76-34-144t2-82q-36-39-56.5-87t-20.5-112q0-138 49-213.5t113.5-111 127.5-42 92-6.5q13 0 37.5-0.5t51.5-0.5q28 0 52 0.5t37 0.5q29 0 92 6.5t127.5 42 113.5 111 49 213.5q0 64-20.5 112t-55.5 87v0zM513 107h-2q-73 0-135.5 6.5t-109 28.5-73 63.5-26.5 111.5q0 34 12.5 65t41.5 57q47 43 123 35t167-8h2q91 0 167 8t123-35q29-26 41.5-57t12.5-65q0-70-26.5-111.5t-73-63.5-109-28.5-135.5-6.5v0zM349 394q-27 0-46.5-27t-19.5-65 19.5-65.5 46.5-27.5q28 0 47.5 27.5t19.5 65.5-19.5 65-47.5 27v0z" />
<glyph unicode="&#xe641;" glyph-name="unity" d="M1012 553l-110 407-408-109-60-106-123 1-298-298 298-298 123 1 60-106 408-109 110 407-63 105 63 105zM756 808l-179-310h-359l226 230 312 80zM577 398l179-310-312 80-226 230h359zM664 448l179 309 87-309-87-309-179 309z" />
<glyph unicode="&#xe800;" glyph-name="windows" d="M0 448v312l384 52v-364h-384zM448 822l512 74v-448h-512v374zM960 384v-448l-512 72v376h512zM384 16l-384 53v315h384v-368z" />
<glyph unicode="&#xe900;" glyph-name="library" horiz-adv-x="1088" d="M1024 0v64h-64v384h64v64h-192v-64h64v-384h-192v384h64v64h-192v-64h64v-384h-192v384h64v64h-192v-64h64v-384h-192v384h64v64h-192v-64h64v-384h-64v-64h-64v-64h1088v64h-64zM512 960h64l512-320v-64h-1088v64l512 320z" />
<glyph unicode="&#xe901;" glyph-name="profile" d="M864 960h-768c-52.8 0-96-43.2-96-96v-832c0-52.8 43.2-96 96-96h768c52.8 0 96 43.2 96 96v832c0 52.8-43.2 96-96 96zM832 64h-704v768h704v-768zM256 384h448v-64h-448zM256 256h448v-64h-448zM320 672c0 53.019 42.981 96 96 96s96-42.981 96-96c0-53.019-42.981-96-96-96s-96 42.981-96 96zM480 576h-128c-52.8 0-96-28.8-96-64v-64h320v64c0 35.2-43.2 64-96 64z" />
<glyph unicode="&#xe902;" glyph-name="phone" d="M704 320c-64-64-64-128-128-128s-128 64-192 128-128 128-128 192 64 64 128 128-128 256-192 256-192-192-192-192c0-128 131.5-387.5 256-512s384-256 512-256c0 0 192 128 192 192s-192 256-256 192z" />
<glyph unicode="&#xe903;" glyph-name="envelop" d="M928 832h-832c-52.8 0-96-43.2-96-96v-640c0-52.8 43.2-96 96-96h832c52.8 0 96 43.2 96 96v640c0 52.8-43.2 96-96 96zM398.74 409.628l-270.74-210.892v501.642l270.74-290.75zM176.38 704h671.24l-335.62-252-335.62 252zM409.288 398.302l102.712-110.302 102.71 110.302 210.554-270.302h-626.528l210.552 270.302zM625.26 409.628l270.74 290.75v-501.642l-270.74 210.892z" />
<glyph unicode="&#xe904;" glyph-name="user-tie" d="M320 768c0 106.039 85.961 192 192 192s192-85.961 192-192c0-106.039-85.961-192-192-192s-192 85.961-192 192zM768.078 512h-35.424l-199.104-404.244 74.45 372.244-96 96-96-96 74.45-372.244-199.102 404.244h-35.424c-127.924 0-127.924-85.986-127.924-192v-320h768v320c0 106.014 0 192-127.922 192z" />
<glyph unicode="&#xe905;" glyph-name="sphere" d="M480 896c-265.096 0-480-214.904-480-480 0-265.098 214.904-480 480-480 265.098 0 480 214.902 480 480 0 265.096-214.902 480-480 480zM751.59 256c8.58 40.454 13.996 83.392 15.758 128h127.446c-3.336-44.196-13.624-87.114-30.68-128h-112.524zM208.41 576c-8.58-40.454-13.996-83.392-15.758-128h-127.444c3.336 44.194 13.622 87.114 30.678 128h112.524zM686.036 576c9.614-40.962 15.398-83.854 17.28-128h-191.316v128h174.036zM512 640v187.338c14.59-4.246 29.044-11.37 43.228-21.37 26.582-18.74 52.012-47.608 73.54-83.486 14.882-24.802 27.752-52.416 38.496-82.484h-155.264zM331.232 722.484c21.528 35.878 46.956 64.748 73.54 83.486 14.182 10 28.638 17.124 43.228 21.37v-187.34h-155.264c10.746 30.066 23.616 57.68 38.496 82.484zM448 576v-128h-191.314c1.88 44.146 7.666 87.038 17.278 128h174.036zM95.888 256c-17.056 40.886-27.342 83.804-30.678 128h127.444c1.762-44.608 7.178-87.546 15.758-128h-112.524zM256.686 384h191.314v-128h-174.036c-9.612 40.96-15.398 83.854-17.278 128zM448 192v-187.34c-14.588 4.246-29.044 11.372-43.228 21.37-26.584 18.74-52.014 47.61-73.54 83.486-14.882 24.804-27.75 52.418-38.498 82.484h155.266zM628.768 109.516c-21.528-35.876-46.958-64.746-73.54-83.486-14.184-9.998-28.638-17.124-43.228-21.37v187.34h155.266c-10.746-30.066-23.616-57.68-38.498-82.484zM512 256v128h191.314c-1.88-44.146-7.666-87.040-17.28-128h-174.034zM767.348 448c-1.762 44.608-7.178 87.546-15.758 128h112.524c17.056-40.886 27.344-83.806 30.68-128h-127.446zM830.658 640h-95.9c-18.638 58.762-44.376 110.294-75.316 151.428 42.536-20.34 81.058-47.616 114.714-81.272 21.48-21.478 40.362-44.938 56.502-70.156zM185.844 710.156c33.658 33.658 72.18 60.932 114.714 81.272-30.942-41.134-56.676-92.666-75.316-151.428h-95.898c16.138 25.218 35.022 48.678 56.5 70.156zM129.344 192h95.898c18.64-58.762 44.376-110.294 75.318-151.43-42.536 20.34-81.058 47.616-114.714 81.274-21.48 21.478-40.364 44.938-56.502 70.156zM774.156 121.844c-33.656-33.658-72.18-60.934-114.714-81.274 30.942 41.134 56.678 92.668 75.316 151.43h95.9c-16.14-25.218-35.022-48.678-56.502-70.156z" />
<glyph unicode="&#xe906;" glyph-name="terminal" d="M0 896v-896h1024v896h-1024zM960 64h-896v768h896v-768zM896 768h-768v-640h768v640zM448 448h-64v-64h-64v-64h-64v64h64v64h64v64h-64v64h-64v64h64v-64h64v-64h64v-64zM704 320h-192v64h192v-64z" />
<glyph unicode="&#xe907;" glyph-name="google-plus" d="M325.8 502.6v-111.8h184.8c-7.4-48-55.8-140.6-184.8-140.6-111.2 0-202 92.2-202 205.8s90.8 205.8 202 205.8c63.4 0 105.6-27 129.8-50.2l88.4 85.2c-56.8 53-130.4 85.2-218.2 85.2-180.2-0.2-325.8-145.8-325.8-326s145.6-325.8 325.8-325.8c188 0 312.8 132.2 312.8 318.4 0 21.4-2.4 37.8-5.2 54h-307.6zM1024 512h-96v96h-96v-96h-96v-96h96v-96h96v96h96z" />
<glyph unicode="&#xe908;" glyph-name="sina-weibo" d="M430.2 62c-169.6-16.8-316 60-327 171.2-11 111.4 117.6 215 287 231.8 169.6 16.8 316-60 326.8-171.2 11.2-111.4-117.4-215.2-286.8-231.8zM769.2 431.4c-14.4 4.4-24.4 7.2-16.8 26.2 16.4 41.2 18 76.6 0.2 102-33.2 47.4-124.2 45-228.4 1.2 0 0-32.8-14.2-24.4 11.6 16 51.6 13.6 94.6-11.4 119.6-56.6 56.6-207-2.2-336-131.2-96.4-96.2-152.4-198.8-152.4-287.4 0-169.2 217.2-272.2 429.6-272.2 278.4 0 463.8 161.8 463.8 290.2 0 77.8-65.4 121.8-124.2 140zM954.2 741.4c-67.2 74.6-166.4 103-258 83.6v0c-21.2-4.6-34.6-25.4-30-46.4 4.6-21.2 25.2-34.6 46.4-30 65.2 13.8 135.6-6.4 183.4-59.4s60.8-125.2 40.2-188.4v0c-6.6-20.6 4.6-42.6 25.2-49.4 20.6-6.6 42.6 4.6 49.4 25.2v0.2c28.8 88.4 10.6 190-56.6 264.6zM850.8 648c-32.8 36.4-81.2 50.2-125.6 40.6-18.2-3.8-29.8-22-26-40.2 4-18.2 22-29.8 40-25.8v0c21.8 4.6 45.4-2.2 61.4-19.8 16-17.8 20.4-42 13.4-63.2v0c-5.6-17.6 4-36.8 21.8-42.6 17.8-5.6 36.8 4 42.6 21.8 14 43.4 5.2 93-27.6 129.2zM439.6 263.4c-6-10.2-19-15-29.2-10.8-10.2 4-13.2 15.6-7.4 25.4 6 9.8 18.6 14.6 28.6 10.8 10-3.6 13.6-15 8-25.4zM385.4 194.2c-16.4-26.2-51.6-37.6-78-25.6-26 11.8-33.8 42.2-17.4 67.8 16.2 25.4 50.2 36.8 76.4 25.8 26.6-11.4 35.2-41.6 19-68zM447 379.4c-80.6 21-171.8-19.2-206.8-90.2-35.8-72.4-1.2-153 80.2-179.4 84.4-27.2 184 14.6 218.6 92.6 34.2 76.6-8.4 155.2-92 177z" />
<glyph unicode="&#xe909;" glyph-name="github" d="M512.008 947.358c-282.738 0-512.008-229.218-512.008-511.998 0-226.214 146.704-418.132 350.136-485.836 25.586-4.738 34.992 11.11 34.992 24.632 0 12.204-0.48 52.542-0.696 95.324-142.448-30.976-172.504 60.41-172.504 60.41-23.282 59.176-56.848 74.916-56.848 74.916-46.452 31.778 3.51 31.124 3.51 31.124 51.4-3.61 78.476-52.766 78.476-52.766 45.672-78.27 119.776-55.64 149.004-42.558 4.588 33.086 17.852 55.68 32.506 68.464-113.73 12.942-233.276 56.85-233.276 253.032 0 55.898 20.004 101.574 52.76 137.428-5.316 12.9-22.854 64.972 4.952 135.5 0 0 43.006 13.752 140.84-52.49 40.836 11.348 84.636 17.036 128.154 17.234 43.502-0.198 87.336-5.886 128.256-17.234 97.734 66.244 140.656 52.49 140.656 52.49 27.872-70.528 10.35-122.6 5.036-135.5 32.82-35.856 52.694-81.532 52.694-137.428 0-196.654-119.778-239.95-233.79-252.624 18.364-15.89 34.724-47.046 34.724-94.812 0-68.508-0.596-123.644-0.596-140.508 0-13.628 9.222-29.594 35.172-24.566 203.322 67.776 349.842 259.626 349.842 485.768 0 282.78-229.234 511.998-511.992 511.998z" />
<glyph unicode="&#xe90a;" glyph-name="blogger2" d="M928 960h-832c-52.8 0-96-43.2-96-96v-832c0-52.8 43.2-96 96-96h832c52.8 0 96 43.2 96 96v832c0 52.8-43.2 96-96 96zM896 312c0-137-111.4-248-249.4-248h-268.8c-138 0-249.8 111-249.8 248v272c0 137 111.8 248 249.8 248h125.8c138 0 248.4-103 248.4-240 1.8-25.6 25-48 51.2-48h43c27.6 0 49.6-29 49.6-56.4v-175.6zM704 320c0-35.2-28.8-64-64-64h-256c-35.2 0-64 28.8-64 64v0c0 35.2 28.8 64 64 64h256c35.2 0 64-28.8 64-64v0zM576 576c0-35.2-28.8-64-64-64h-128c-35.2 0-64 28.8-64 64v0c0 35.2 28.8 64 64 64h128c35.2 0 64-28.8 64-64v0z" />
<glyph unicode="&#xe90b;" glyph-name="tux" d="M567.656 223.084c-81.944-38.118-158.158-37.716-209.34-34.020-61.052 4.41-110.158 21.124-131.742 35.732-13.3 9.006-31.384 5.522-40.39-7.782-9.004-13.302-5.52-31.386 7.782-40.39 34.698-23.486 96.068-40.954 160.162-45.58 10.866-0.784 22.798-1.278 35.646-1.278 55.782 0 126.626 5.316 202.42 40.57 14.564 6.778 20.878 24.074 14.104 38.64-6.776 14.566-24.076 20.872-38.642 14.108zM890.948 266.184c2.786 252.688 28.762 730.206-454.97 691.612-477.6-38.442-350.964-542.968-358.082-711.95-6.308-89.386-35.978-198.648-77.896-309.846h129.1c13.266 47.122 23.024 93.72 27.232 138.15 7.782-5.428 16.108-10.674 24.994-15.7 14.458-8.518 26.884-19.844 40.040-31.834 30.744-28.018 65.59-59.774 133.712-63.752 4.572-0.262 9.174-0.394 13.676-0.394 68.896 0 116.014 30.154 153.878 54.382 18.14 11.612 33.818 21.64 48.564 26.452 41.91 13.12 78.532 34.296 105.904 61.252 4.276 4.208 8.242 8.538 11.962 12.948 15.246-55.878 36.118-118.758 59.288-181.504h275.65c-66.174 102.224-134.436 202.374-133.052 330.184zM124.11 403.648c0 0.016 0 0.030-0.002 0.046-4.746 82.462 34.71 151.832 88.126 154.936 53.412 3.106 100.56-61.228 105.304-143.692 0-0.014 0.004-0.030 0.004-0.044 0.256-4.446 0.368-8.846 0.37-13.206-16.924-4.256-32.192-10.436-45.872-17.63-0.052 0.612-0.092 1.216-0.152 1.83 0 0.008 0 0.018 0 0.026-4.57 46.81-29.572 82.16-55.852 78.958-26.28-3.204-43.88-43.75-39.312-90.558 0-0.010 0.004-0.018 0.004-0.026 1.992-20.408 7.868-38.636 16.042-52.444-2.034-1.604-7.784-5.812-14.406-10.656-4.97-3.634-11.020-8.058-18.314-13.43-19.882 26.094-33.506 63.58-35.94 105.89zM665.26 199.822c-1.9-43.586-58.908-84.592-111.582-101.044l-0.296-0.096c-21.9-7.102-41.428-19.6-62.104-32.83-34.732-22.224-70.646-45.208-122.522-45.208-3.404 0-6.894 0.104-10.326 0.296-47.516 2.778-69.742 23.032-97.88 48.676-14.842 13.526-30.19 27.514-49.976 39.124l-0.424 0.244c-42.706 24.104-69.212 54.082-70.908 80.194-0.842 12.98 4.938 24.218 17.182 33.4 26.636 19.972 44.478 33.022 56.284 41.658 13.11 9.588 17.068 12.48 20 15.264 2.096 1.986 4.364 4.188 6.804 6.562 24.446 23.774 65.36 63.562 128.15 63.562 38.404 0 80.898-14.8 126.17-43.902 21.324-13.878 39.882-20.286 63.38-28.4 16.156-5.578 34.468-11.902 58.992-22.404l0.396-0.164c22.88-9.404 49.896-26.564 48.66-54.932zM652.646 302.194c-4.4 2.214-8.974 4.32-13.744 6.286-22.106 9.456-39.832 15.874-54.534 20.998 8.116 15.894 13.16 35.72 13.624 57.242 0 0.010 0 0.022 0 0.030 1.126 52.374-25.288 94.896-58.996 94.976-33.71 0.078-61.95-42.314-63.076-94.686 0-0.010 0-0.018 0-0.028-0.038-1.714-0.042-3.416-0.020-5.11-20.762 9.552-41.18 16.49-61.166 20.76-0.092 1.968-0.204 3.932-0.244 5.92 0 0.016 0 0.036 0 0.050-1.938 95.412 56.602 174.39 130.754 176.402 74.15 2.014 135.828-73.7 137.772-169.11 0-0.018 0-0.038 0-0.052 0.874-43.146-10.66-82.866-30.37-113.678z" />
<glyph unicode="&#xe90c;" glyph-name="appleinc" d="M791.498 415.908c-1.294 129.682 105.758 191.876 110.542 194.966-60.152 88.020-153.85 100.078-187.242 101.472-79.742 8.074-155.596-46.948-196.066-46.948-40.368 0-102.818 45.754-168.952 44.552-86.916-1.292-167.058-50.538-211.812-128.38-90.304-156.698-23.126-388.84 64.89-515.926 43.008-62.204 94.292-132.076 161.626-129.58 64.842 2.588 89.362 41.958 167.756 41.958s100.428-41.958 169.050-40.67c69.774 1.296 113.982 63.398 156.692 125.796 49.39 72.168 69.726 142.038 70.924 145.626-1.548 0.706-136.060 52.236-137.408 207.134zM662.562 796.478c35.738 43.358 59.86 103.512 53.28 163.522-51.478-2.096-113.878-34.29-150.81-77.55-33.142-38.376-62.148-99.626-54.374-158.436 57.466-4.484 116.128 29.204 151.904 72.464z" />
<glyph unicode="&#xe90d;" glyph-name="android" d="M896 576c-35.2 0-64-28.8-64-64v-256c0-35.2 28.8-64 64-64s64 28.8 64 64v256c0 35.2-28.8 64-64 64zM128 576c-35.2 0-64-28.8-64-64v-256c0-35.2 28.8-64 64-64s64 28.8 64 64v256c0 35.2-28.802 64-64 64zM224 224c0-53.020 42.98-96 96-96v0-128c0-35.2 28.8-64 64-64s64 28.8 64 64v128h128v-128c0-35.2 28.8-64 64-64s64 28.8 64 64v128c53.020 0 96 42.98 96 96v352h-576v-352zM798.216 639.998c-9.716 87.884-59.004 163.792-129.62 209.646l32.024 64.046c7.904 15.806 1.496 35.028-14.31 42.932s-35.030 1.496-42.932-14.312l-32.142-64.286-8.35 3.316c-28.568 9.502-59.122 14.66-90.886 14.66-31.762 0-62.316-5.158-90.888-14.656l-8.348-3.316-32.142 64.282c-7.904 15.808-27.128 22.212-42.932 14.312-15.808-7.904-22.214-27.126-14.312-42.932l32.022-64.046c-70.616-45.852-119.904-121.762-129.622-209.644v-32h574.222v31.998h-1.784zM416 704c-17.674 0-32 14.328-32 32 0 17.648 14.288 31.958 31.93 31.996 0.032 0 0.062-0.002 0.094-0.002 0.018 0 0.036 0.002 0.052 0.002 17.638-0.042 31.924-14.35 31.924-31.996 0-17.672-14.326-32-32-32zM608 704c-17.674 0-32 14.328-32 32 0 17.646 14.286 31.954 31.924 31.996 0.016 0 0.034-0.002 0.050-0.002 0.032 0 0.064 0.002 0.096 0.002 17.64-0.038 31.93-14.348 31.93-31.996 0-17.672-14.326-32-32-32z" />
<glyph unicode="&#xe90e;" glyph-name="html-five" d="M60.538 960l82.144-921.63 368.756-102.37 369.724 102.524 82.3 921.476h-902.924zM784.63 658.572h-432.54l10.302-115.75h411.968l-31.042-347.010-231.844-64.254-231.572 64.254-15.83 177.512h113.494l8.048-90.232 125.862-33.916 0.278 0.078 125.934 33.992 13.070 146.55h-391.74l-30.494 341.8h566.214l-10.108-113.024z" />
<glyph unicode="&#xe90f;" glyph-name="css3" d="M152.388 911.478l-34.36-171.926h699.748l-21.884-111.054h-700.188l-33.892-171.898h699.684l-39.018-196.064-282.012-93.422-244.4 93.422 16.728 85.042h-171.898l-40.896-206.352 404.226-154.704 466.006 154.704 153.768 772.252z" />
</font>
</defs>
</svg>
